<?xml version="1.0" encoding="UTF-8" standalone="no"?>
<!DOCTYPE svg PUBLIC "-//W3C//DTD SVG 1.1//EN" "http://www.w3.org/Graphics/SVG/1.1/DTD/svg11.dtd">
<svg width="100%" height="100%" viewBox="0 0 474 328" version="1.1" xmlns="http://www.w3.org/2000/svg" xmlns:xlink="http://www.w3.org/1999/xlink" xml:space="preserve" xmlns:serif="http://www.serif.com/" style="fill-rule:evenodd;clip-rule:evenodd;stroke-linejoin:round;stroke-miterlimit:2;">
    <g transform="matrix(1,0,0,1,-715.999,-173.44)">
        <g transform="matrix(2.07837,0,0,2.07837,-772.133,-187.032)">
            <g transform="matrix(134.02,0,0,134.02,710,268)">
                <path d="M0.646,-0.027C0.646,-0.013 0.64,-0.004 0.628,-0C0.618,0.003 0.592,0.005 0.551,0.005C0.511,0.005 0.481,0.003 0.463,-0C0.454,-0.002 0.448,-0.003 0.445,-0.005C0.443,-0.007 0.439,-0.012 0.435,-0.019C0.411,-0.063 0.388,-0.106 0.364,-0.15C0.326,-0.22 0.302,-0.259 0.295,-0.266C0.26,-0.253 0.242,-0.244 0.242,-0.239C0.242,-0.214 0.243,-0.177 0.245,-0.128C0.247,-0.079 0.248,-0.042 0.248,-0.017C0.248,-0.007 0.244,-0.001 0.235,-0C0.218,0.003 0.187,0.004 0.143,0.004C0.101,0.004 0.073,0.003 0.059,-0C0.05,-0.002 0.045,-0.007 0.045,-0.015C0.045,-0.05 0.047,-0.103 0.05,-0.174C0.053,-0.245 0.055,-0.299 0.055,-0.334C0.055,-0.372 0.054,-0.428 0.05,-0.504C0.047,-0.58 0.045,-0.637 0.045,-0.674C0.045,-0.681 0.049,-0.685 0.056,-0.685C0.066,-0.685 0.081,-0.685 0.101,-0.684C0.122,-0.683 0.137,-0.682 0.147,-0.682C0.157,-0.682 0.173,-0.683 0.193,-0.684C0.214,-0.685 0.229,-0.685 0.239,-0.685C0.245,-0.685 0.248,-0.682 0.248,-0.676C0.248,-0.652 0.246,-0.616 0.244,-0.567C0.241,-0.518 0.24,-0.482 0.24,-0.458C0.24,-0.43 0.248,-0.416 0.263,-0.416C0.302,-0.416 0.332,-0.427 0.354,-0.448C0.369,-0.463 0.386,-0.492 0.402,-0.533C0.412,-0.565 0.429,-0.611 0.453,-0.673C0.457,-0.681 0.464,-0.685 0.475,-0.685C0.484,-0.685 0.496,-0.685 0.513,-0.684C0.53,-0.683 0.543,-0.682 0.552,-0.682C0.561,-0.682 0.574,-0.682 0.591,-0.683C0.608,-0.684 0.621,-0.684 0.63,-0.684C0.638,-0.684 0.642,-0.68 0.642,-0.673C0.642,-0.662 0.635,-0.636 0.621,-0.594C0.581,-0.471 0.534,-0.394 0.482,-0.364C0.471,-0.358 0.466,-0.353 0.466,-0.349C0.466,-0.349 0.496,-0.3 0.556,-0.202C0.616,-0.104 0.646,-0.046 0.646,-0.027Z" style="fill:white;fill-rule:nonzero;"/>
            </g>
            <g transform="matrix(134.02,0,0,134.02,798.082,268)">
                <path d="M0.243,-0.361C0.243,-0.322 0.244,-0.265 0.246,-0.188C0.248,-0.11 0.249,-0.053 0.249,-0.014C0.249,-0.008 0.248,-0.004 0.245,-0.002C0.244,-0.002 0.24,-0.001 0.232,-0C0.211,0.003 0.182,0.004 0.147,0.004C0.099,0.004 0.069,0.003 0.056,-0C0.047,-0.002 0.042,-0.007 0.042,-0.015C0.042,-0.01 0.043,-0.039 0.046,-0.101C0.052,-0.233 0.055,-0.319 0.055,-0.361C0.055,-0.396 0.054,-0.448 0.052,-0.518C0.049,-0.587 0.048,-0.639 0.048,-0.674C0.048,-0.681 0.052,-0.685 0.06,-0.685C0.07,-0.685 0.085,-0.685 0.105,-0.684C0.125,-0.683 0.141,-0.682 0.151,-0.682C0.161,-0.682 0.176,-0.683 0.195,-0.684C0.215,-0.685 0.23,-0.685 0.24,-0.685C0.25,-0.685 0.254,-0.681 0.254,-0.674C0.254,-0.639 0.252,-0.587 0.249,-0.518C0.245,-0.448 0.243,-0.396 0.243,-0.361Z" style="fill:white;fill-rule:nonzero;"/>
            </g>
            <g transform="matrix(134.02,0,0,134.02,838,268)">
                <path d="M0.378,-0.225C0.378,-0.159 0.35,-0.102 0.294,-0.055C0.246,-0.013 0.186,0.014 0.116,0.025C0.114,0.025 0.111,0.025 0.11,0.025C0.102,0.025 0.086,0.003 0.06,-0.043C0.034,-0.089 0.021,-0.117 0.021,-0.127C0.021,-0.131 0.024,-0.133 0.029,-0.134C0.076,-0.145 0.107,-0.154 0.123,-0.161C0.156,-0.178 0.173,-0.203 0.173,-0.236C0.173,-0.257 0.162,-0.281 0.14,-0.307C0.102,-0.351 0.081,-0.376 0.078,-0.381C0.055,-0.415 0.044,-0.452 0.044,-0.493C0.044,-0.553 0.071,-0.602 0.126,-0.642C0.171,-0.674 0.227,-0.695 0.292,-0.705C0.296,-0.705 0.298,-0.706 0.3,-0.706C0.305,-0.706 0.309,-0.702 0.312,-0.694C0.32,-0.67 0.34,-0.627 0.371,-0.565C0.372,-0.563 0.373,-0.561 0.373,-0.56C0.373,-0.555 0.37,-0.552 0.364,-0.552C0.361,-0.552 0.357,-0.552 0.351,-0.553C0.344,-0.554 0.34,-0.555 0.336,-0.555C0.313,-0.555 0.292,-0.549 0.275,-0.539C0.254,-0.526 0.243,-0.509 0.243,-0.487C0.243,-0.467 0.255,-0.443 0.278,-0.414C0.32,-0.361 0.341,-0.334 0.343,-0.332C0.366,-0.296 0.378,-0.26 0.378,-0.225Z" style="fill:white;fill-rule:nonzero;"/>
            </g>
            <g transform="matrix(134.02,0,0,134.02,893.493,268)">
                <path d="M0.378,-0.225C0.378,-0.159 0.35,-0.102 0.294,-0.055C0.246,-0.013 0.186,0.014 0.116,0.025C0.114,0.025 0.111,0.025 0.11,0.025C0.102,0.025 0.086,0.003 0.06,-0.043C0.034,-0.089 0.021,-0.117 0.021,-0.127C0.021,-0.131 0.024,-0.133 0.029,-0.134C0.076,-0.145 0.107,-0.154 0.123,-0.161C0.156,-0.178 0.173,-0.203 0.173,-0.236C0.173,-0.257 0.162,-0.281 0.14,-0.307C0.102,-0.351 0.081,-0.376 0.078,-0.381C0.055,-0.415 0.044,-0.452 0.044,-0.493C0.044,-0.553 0.071,-0.602 0.126,-0.642C0.171,-0.674 0.227,-0.695 0.292,-0.705C0.296,-0.705 0.298,-0.706 0.3,-0.706C0.305,-0.706 0.309,-0.702 0.312,-0.694C0.32,-0.67 0.34,-0.627 0.371,-0.565C0.372,-0.563 0.373,-0.561 0.373,-0.56C0.373,-0.555 0.37,-0.552 0.364,-0.552C0.361,-0.552 0.357,-0.552 0.351,-0.553C0.344,-0.554 0.34,-0.555 0.336,-0.555C0.313,-0.555 0.292,-0.549 0.275,-0.539C0.254,-0.526 0.243,-0.509 0.243,-0.487C0.243,-0.467 0.255,-0.443 0.278,-0.414C0.32,-0.361 0.341,-0.334 0.343,-0.332C0.366,-0.296 0.378,-0.26 0.378,-0.225Z" style="fill:white;fill-rule:nonzero;"/>
            </g>
        </g>
        <g transform="matrix(1.2849,0,0,1.2849,-189.991,-256.562)">
            <g transform="matrix(170,0,0,170,702,587)">
                <path d="M0.327,-0.395C0.327,-0.392 0.325,-0.387 0.32,-0.382C0.311,-0.384 0.302,-0.385 0.292,-0.385C0.273,-0.385 0.257,-0.381 0.244,-0.373C0.229,-0.363 0.221,-0.349 0.221,-0.331C0.221,-0.32 0.229,-0.305 0.246,-0.288C0.271,-0.261 0.286,-0.243 0.292,-0.234C0.309,-0.21 0.317,-0.183 0.317,-0.155C0.317,-0.138 0.314,-0.121 0.307,-0.102C0.3,-0.082 0.29,-0.067 0.279,-0.057C0.255,-0.036 0.227,-0.019 0.194,-0.004C0.16,0.011 0.127,0.018 0.098,0.018C0.092,0.018 0.077,0 0.054,-0.035C0.032,-0.07 0.021,-0.092 0.021,-0.1C0.021,-0.103 0.022,-0.104 0.026,-0.105C0.049,-0.109 0.072,-0.113 0.095,-0.118C0.123,-0.127 0.138,-0.142 0.138,-0.163C0.138,-0.177 0.129,-0.194 0.113,-0.212C0.083,-0.245 0.068,-0.263 0.066,-0.265C0.05,-0.288 0.042,-0.313 0.042,-0.339C0.042,-0.388 0.066,-0.429 0.116,-0.463C0.16,-0.494 0.207,-0.509 0.258,-0.509C0.263,-0.509 0.276,-0.491 0.296,-0.456C0.317,-0.421 0.327,-0.401 0.327,-0.395Z" style="fill:white;fill-rule:nonzero;"/>
            </g>
            <g transform="matrix(170,0,0,170,762.513,587)">
                <path d="M0.368,-0.143C0.368,-0.133 0.367,-0.118 0.364,-0.099C0.362,-0.079 0.361,-0.064 0.361,-0.055C0.361,-0.046 0.36,-0.04 0.358,-0.037C0.356,-0.035 0.351,-0.031 0.342,-0.026C0.3,-0.003 0.253,0.009 0.202,0.009C0.108,0.009 0.061,-0.027 0.061,-0.099C0.061,-0.121 0.062,-0.153 0.063,-0.196C0.065,-0.239 0.066,-0.271 0.066,-0.293C0.066,-0.307 0.058,-0.314 0.041,-0.314L0.035,-0.314C0.032,-0.314 0.03,-0.314 0.028,-0.314C0.016,-0.314 0.01,-0.318 0.01,-0.327C0.01,-0.332 0.01,-0.34 0.011,-0.351C0.012,-0.362 0.012,-0.37 0.012,-0.375C0.012,-0.382 0.012,-0.392 0.011,-0.406C0.01,-0.42 0.01,-0.431 0.01,-0.438C0.01,-0.444 0.02,-0.448 0.041,-0.448C0.053,-0.449 0.059,-0.452 0.06,-0.458C0.062,-0.47 0.063,-0.49 0.062,-0.517C0.061,-0.559 0.06,-0.579 0.06,-0.577C0.06,-0.614 0.064,-0.633 0.071,-0.633C0.08,-0.633 0.092,-0.631 0.108,-0.627C0.127,-0.623 0.14,-0.621 0.147,-0.62C0.164,-0.618 0.189,-0.615 0.222,-0.611C0.23,-0.61 0.234,-0.607 0.234,-0.603C0.234,-0.59 0.233,-0.57 0.231,-0.543C0.229,-0.517 0.228,-0.497 0.228,-0.484C0.228,-0.468 0.233,-0.46 0.242,-0.46C0.254,-0.46 0.271,-0.46 0.294,-0.461C0.317,-0.462 0.334,-0.463 0.346,-0.463C0.353,-0.463 0.357,-0.46 0.357,-0.456C0.357,-0.448 0.356,-0.437 0.354,-0.422C0.353,-0.407 0.352,-0.396 0.352,-0.388C0.352,-0.38 0.353,-0.328 0.353,-0.32C0.353,-0.313 0.348,-0.31 0.339,-0.31C0.332,-0.31 0.321,-0.31 0.306,-0.31C0.291,-0.311 0.28,-0.311 0.273,-0.311L0.237,-0.311C0.232,-0.311 0.229,-0.304 0.229,-0.29L0.229,-0.255C0.23,-0.239 0.23,-0.228 0.23,-0.22C0.23,-0.193 0.233,-0.174 0.239,-0.164C0.248,-0.15 0.265,-0.143 0.291,-0.143C0.299,-0.143 0.311,-0.144 0.326,-0.148C0.341,-0.152 0.352,-0.154 0.358,-0.154C0.365,-0.154 0.368,-0.15 0.368,-0.143Z" style="fill:white;fill-rule:nonzero;"/>
            </g>
            <g transform="matrix(170,0,0,170,826.761,587)">
                <path d="M0.532,-0.244C0.532,-0.219 0.534,-0.182 0.537,-0.132C0.54,-0.083 0.541,-0.046 0.541,-0.021C0.541,-0.008 0.535,-0.001 0.524,-0C0.484,0.003 0.437,0.004 0.385,0.004C0.379,0.004 0.375,-0.005 0.373,-0.023C0.371,-0.042 0.368,-0.052 0.365,-0.052C0.363,-0.051 0.359,-0.048 0.355,-0.044C0.319,-0.007 0.279,0.011 0.238,0.011C0.174,0.011 0.122,-0.014 0.08,-0.064C0.041,-0.111 0.021,-0.167 0.021,-0.232C0.021,-0.307 0.041,-0.368 0.082,-0.414C0.124,-0.461 0.182,-0.485 0.256,-0.485C0.307,-0.485 0.347,-0.467 0.377,-0.431C0.378,-0.43 0.379,-0.429 0.38,-0.429C0.383,-0.429 0.387,-0.437 0.39,-0.452C0.394,-0.468 0.399,-0.476 0.404,-0.476C0.416,-0.476 0.439,-0.473 0.473,-0.466C0.505,-0.459 0.528,-0.454 0.542,-0.449C0.547,-0.447 0.549,-0.445 0.549,-0.441C0.549,-0.44 0.549,-0.437 0.548,-0.431C0.537,-0.372 0.532,-0.31 0.532,-0.244ZM0.375,-0.241C0.375,-0.269 0.366,-0.292 0.349,-0.31C0.331,-0.328 0.309,-0.337 0.281,-0.337C0.253,-0.337 0.23,-0.328 0.213,-0.31C0.196,-0.292 0.187,-0.269 0.187,-0.241C0.187,-0.215 0.196,-0.192 0.214,-0.173C0.233,-0.154 0.255,-0.145 0.281,-0.145C0.308,-0.145 0.331,-0.154 0.349,-0.172C0.366,-0.19 0.375,-0.213 0.375,-0.241Z" style="fill:white;fill-rule:nonzero;"/>
            </g>
            <g transform="matrix(170,0,0,170,926.702,587)">
                <path d="M0.368,-0.143C0.368,-0.133 0.367,-0.118 0.364,-0.099C0.362,-0.079 0.361,-0.064 0.361,-0.055C0.361,-0.046 0.36,-0.04 0.358,-0.037C0.356,-0.035 0.351,-0.031 0.342,-0.026C0.3,-0.003 0.253,0.009 0.202,0.009C0.108,0.009 0.061,-0.027 0.061,-0.099C0.061,-0.121 0.062,-0.153 0.063,-0.196C0.065,-0.239 0.066,-0.271 0.066,-0.293C0.066,-0.307 0.058,-0.314 0.041,-0.314L0.035,-0.314C0.032,-0.314 0.03,-0.314 0.028,-0.314C0.016,-0.314 0.01,-0.318 0.01,-0.327C0.01,-0.332 0.01,-0.34 0.011,-0.351C0.012,-0.362 0.012,-0.37 0.012,-0.375C0.012,-0.382 0.012,-0.392 0.011,-0.406C0.01,-0.42 0.01,-0.431 0.01,-0.438C0.01,-0.444 0.02,-0.448 0.041,-0.448C0.053,-0.449 0.059,-0.452 0.06,-0.458C0.062,-0.47 0.063,-0.49 0.062,-0.517C0.061,-0.559 0.06,-0.579 0.06,-0.577C0.06,-0.614 0.064,-0.633 0.071,-0.633C0.08,-0.633 0.092,-0.631 0.108,-0.627C0.127,-0.623 0.14,-0.621 0.147,-0.62C0.164,-0.618 0.189,-0.615 0.222,-0.611C0.23,-0.61 0.234,-0.607 0.234,-0.603C0.234,-0.59 0.233,-0.57 0.231,-0.543C0.229,-0.517 0.228,-0.497 0.228,-0.484C0.228,-0.468 0.233,-0.46 0.242,-0.46C0.254,-0.46 0.271,-0.46 0.294,-0.461C0.317,-0.462 0.334,-0.463 0.346,-0.463C0.353,-0.463 0.357,-0.46 0.357,-0.456C0.357,-0.448 0.356,-0.437 0.354,-0.422C0.353,-0.407 0.352,-0.396 0.352,-0.388C0.352,-0.38 0.353,-0.328 0.353,-0.32C0.353,-0.313 0.348,-0.31 0.339,-0.31C0.332,-0.31 0.321,-0.31 0.306,-0.31C0.291,-0.311 0.28,-0.311 0.273,-0.311L0.237,-0.311C0.232,-0.311 0.229,-0.304 0.229,-0.29L0.229,-0.255C0.23,-0.239 0.23,-0.228 0.23,-0.22C0.23,-0.193 0.233,-0.174 0.239,-0.164C0.248,-0.15 0.265,-0.143 0.291,-0.143C0.299,-0.143 0.311,-0.144 0.326,-0.148C0.341,-0.152 0.352,-0.154 0.358,-0.154C0.365,-0.154 0.368,-0.15 0.368,-0.143Z" style="fill:white;fill-rule:nonzero;"/>
            </g>
            <g transform="matrix(170,0,0,170,990.95,587)">
                <path d="M0.489,-0.265C0.489,-0.232 0.478,-0.214 0.457,-0.209C0.453,-0.208 0.42,-0.205 0.356,-0.198C0.318,-0.194 0.26,-0.189 0.184,-0.183C0.189,-0.162 0.202,-0.146 0.226,-0.135C0.244,-0.126 0.266,-0.121 0.29,-0.121C0.319,-0.121 0.348,-0.129 0.377,-0.145C0.39,-0.152 0.402,-0.16 0.415,-0.168C0.421,-0.165 0.433,-0.148 0.449,-0.118C0.465,-0.088 0.473,-0.069 0.473,-0.061C0.473,-0.059 0.471,-0.055 0.466,-0.05C0.426,-0.007 0.364,0.014 0.281,0.014C0.203,0.014 0.141,-0.008 0.093,-0.054C0.044,-0.1 0.02,-0.161 0.02,-0.238C0.02,-0.313 0.042,-0.374 0.085,-0.422C0.13,-0.471 0.19,-0.496 0.264,-0.496C0.327,-0.496 0.38,-0.473 0.423,-0.428C0.467,-0.382 0.489,-0.328 0.489,-0.265ZM0.318,-0.295C0.318,-0.315 0.311,-0.333 0.296,-0.348C0.282,-0.363 0.265,-0.371 0.245,-0.371C0.225,-0.371 0.208,-0.362 0.194,-0.345C0.182,-0.329 0.176,-0.311 0.176,-0.289C0.176,-0.28 0.18,-0.276 0.189,-0.276C0.214,-0.276 0.251,-0.28 0.302,-0.287C0.313,-0.289 0.318,-0.291 0.318,-0.295Z" style="fill:white;fill-rule:nonzero;"/>
            </g>
        </g>
    </g>
</svg>
