<?xml version="1.0" encoding="UTF-8" standalone="no"?>
<!DOCTYPE svg PUBLIC "-//W3C//DTD SVG 1.1//EN" "http://www.w3.org/Graphics/SVG/1.1/DTD/svg11.dtd">
<svg width="100%" height="100%" viewBox="0 0 527 39" version="1.1" xmlns="http://www.w3.org/2000/svg" xmlns:xlink="http://www.w3.org/1999/xlink" xml:space="preserve" xmlns:serif="http://www.serif.com/" style="fill-rule:evenodd;clip-rule:evenodd;stroke-linejoin:round;stroke-miterlimit:2;">
    <g transform="matrix(1,0,0,1,-368.601,-403.678)">
        <g transform="matrix(0.242429,0,0,0.242429,200.531,293.914)">
            <g transform="matrix(170,0,0,170,702,587)">
                <path d="M0.378,-0.225C0.378,-0.159 0.35,-0.102 0.294,-0.055C0.246,-0.013 0.186,0.014 0.116,0.025C0.114,0.025 0.111,0.025 0.11,0.025C0.102,0.025 0.086,0.003 0.06,-0.043C0.034,-0.089 0.021,-0.117 0.021,-0.127C0.021,-0.131 0.024,-0.133 0.029,-0.134C0.076,-0.145 0.107,-0.154 0.123,-0.161C0.156,-0.178 0.173,-0.203 0.173,-0.236C0.173,-0.257 0.162,-0.281 0.14,-0.307C0.102,-0.351 0.081,-0.376 0.078,-0.381C0.055,-0.415 0.044,-0.452 0.044,-0.493C0.044,-0.553 0.071,-0.602 0.126,-0.642C0.171,-0.674 0.227,-0.695 0.292,-0.705C0.296,-0.705 0.298,-0.706 0.3,-0.706C0.305,-0.706 0.309,-0.702 0.312,-0.694C0.32,-0.67 0.34,-0.627 0.371,-0.565C0.372,-0.563 0.373,-0.561 0.373,-0.56C0.373,-0.555 0.37,-0.552 0.364,-0.552C0.361,-0.552 0.357,-0.552 0.351,-0.553C0.344,-0.554 0.34,-0.555 0.336,-0.555C0.313,-0.555 0.292,-0.549 0.275,-0.539C0.254,-0.526 0.243,-0.509 0.243,-0.487C0.243,-0.467 0.255,-0.443 0.278,-0.414C0.32,-0.361 0.341,-0.334 0.343,-0.332C0.366,-0.296 0.378,-0.26 0.378,-0.225Z" style="fill:white;fill-rule:nonzero;"/>
            </g>
            <g transform="matrix(170,0,0,170,772.391,587)">
                <path d="M0.368,-0.143C0.368,-0.133 0.367,-0.118 0.364,-0.099C0.362,-0.079 0.361,-0.064 0.361,-0.055C0.361,-0.046 0.36,-0.04 0.358,-0.037C0.356,-0.035 0.351,-0.031 0.342,-0.026C0.3,-0.003 0.253,0.009 0.202,0.009C0.108,0.009 0.061,-0.027 0.061,-0.099C0.061,-0.121 0.062,-0.153 0.063,-0.196C0.065,-0.239 0.066,-0.271 0.066,-0.293C0.066,-0.307 0.058,-0.314 0.041,-0.314L0.035,-0.314C0.032,-0.314 0.03,-0.314 0.028,-0.314C0.016,-0.314 0.01,-0.318 0.01,-0.327C0.01,-0.332 0.01,-0.34 0.011,-0.351C0.012,-0.362 0.012,-0.37 0.012,-0.375C0.012,-0.382 0.012,-0.392 0.011,-0.406C0.01,-0.42 0.01,-0.431 0.01,-0.438C0.01,-0.444 0.02,-0.448 0.041,-0.448C0.053,-0.449 0.059,-0.452 0.06,-0.458C0.062,-0.47 0.063,-0.49 0.062,-0.517C0.061,-0.559 0.06,-0.579 0.06,-0.577C0.06,-0.614 0.064,-0.633 0.071,-0.633C0.08,-0.633 0.092,-0.631 0.108,-0.627C0.127,-0.623 0.14,-0.621 0.147,-0.62C0.164,-0.618 0.189,-0.615 0.222,-0.611C0.23,-0.61 0.234,-0.607 0.234,-0.603C0.234,-0.59 0.233,-0.57 0.231,-0.543C0.229,-0.517 0.228,-0.497 0.228,-0.484C0.228,-0.468 0.233,-0.46 0.242,-0.46C0.254,-0.46 0.271,-0.46 0.294,-0.461C0.317,-0.462 0.334,-0.463 0.346,-0.463C0.353,-0.463 0.357,-0.46 0.357,-0.456C0.357,-0.448 0.356,-0.437 0.354,-0.422C0.353,-0.407 0.352,-0.396 0.352,-0.388C0.352,-0.38 0.353,-0.328 0.353,-0.32C0.353,-0.313 0.348,-0.31 0.339,-0.31C0.332,-0.31 0.321,-0.31 0.306,-0.31C0.291,-0.311 0.28,-0.311 0.273,-0.311L0.237,-0.311C0.232,-0.311 0.229,-0.304 0.229,-0.29L0.229,-0.255C0.23,-0.239 0.23,-0.228 0.23,-0.22C0.23,-0.193 0.233,-0.174 0.239,-0.164C0.248,-0.15 0.265,-0.143 0.291,-0.143C0.299,-0.143 0.311,-0.144 0.326,-0.148C0.341,-0.152 0.352,-0.154 0.358,-0.154C0.365,-0.154 0.368,-0.15 0.368,-0.143Z" style="fill:white;fill-rule:nonzero;"/>
            </g>
            <g transform="matrix(170,0,0,170,836.639,587)">
                <path d="M0.532,-0.244C0.532,-0.219 0.534,-0.182 0.537,-0.132C0.54,-0.083 0.541,-0.046 0.541,-0.021C0.541,-0.008 0.535,-0.001 0.524,-0C0.484,0.003 0.437,0.004 0.385,0.004C0.379,0.004 0.375,-0.005 0.373,-0.023C0.371,-0.042 0.368,-0.052 0.365,-0.052C0.363,-0.051 0.359,-0.048 0.355,-0.044C0.319,-0.007 0.279,0.011 0.238,0.011C0.174,0.011 0.122,-0.014 0.08,-0.064C0.041,-0.111 0.021,-0.167 0.021,-0.232C0.021,-0.307 0.041,-0.368 0.082,-0.414C0.124,-0.461 0.182,-0.485 0.256,-0.485C0.307,-0.485 0.347,-0.467 0.377,-0.431C0.378,-0.43 0.379,-0.429 0.38,-0.429C0.383,-0.429 0.387,-0.437 0.39,-0.452C0.394,-0.468 0.399,-0.476 0.404,-0.476C0.416,-0.476 0.439,-0.473 0.473,-0.466C0.505,-0.459 0.528,-0.454 0.542,-0.449C0.547,-0.447 0.549,-0.445 0.549,-0.441C0.549,-0.44 0.549,-0.437 0.548,-0.431C0.537,-0.372 0.532,-0.31 0.532,-0.244ZM0.375,-0.241C0.375,-0.269 0.366,-0.292 0.349,-0.31C0.331,-0.328 0.309,-0.337 0.281,-0.337C0.253,-0.337 0.23,-0.328 0.213,-0.31C0.196,-0.292 0.187,-0.269 0.187,-0.241C0.187,-0.215 0.196,-0.192 0.214,-0.173C0.233,-0.154 0.255,-0.145 0.281,-0.145C0.308,-0.145 0.331,-0.154 0.349,-0.172C0.366,-0.19 0.375,-0.213 0.375,-0.241Z" style="fill:white;fill-rule:nonzero;"/>
            </g>
            <g transform="matrix(170,0,0,170,936.58,587)">
                <path d="M0.368,-0.143C0.368,-0.133 0.367,-0.118 0.364,-0.099C0.362,-0.079 0.361,-0.064 0.361,-0.055C0.361,-0.046 0.36,-0.04 0.358,-0.037C0.356,-0.035 0.351,-0.031 0.342,-0.026C0.3,-0.003 0.253,0.009 0.202,0.009C0.108,0.009 0.061,-0.027 0.061,-0.099C0.061,-0.121 0.062,-0.153 0.063,-0.196C0.065,-0.239 0.066,-0.271 0.066,-0.293C0.066,-0.307 0.058,-0.314 0.041,-0.314L0.035,-0.314C0.032,-0.314 0.03,-0.314 0.028,-0.314C0.016,-0.314 0.01,-0.318 0.01,-0.327C0.01,-0.332 0.01,-0.34 0.011,-0.351C0.012,-0.362 0.012,-0.37 0.012,-0.375C0.012,-0.382 0.012,-0.392 0.011,-0.406C0.01,-0.42 0.01,-0.431 0.01,-0.438C0.01,-0.444 0.02,-0.448 0.041,-0.448C0.053,-0.449 0.059,-0.452 0.06,-0.458C0.062,-0.47 0.063,-0.49 0.062,-0.517C0.061,-0.559 0.06,-0.579 0.06,-0.577C0.06,-0.614 0.064,-0.633 0.071,-0.633C0.08,-0.633 0.092,-0.631 0.108,-0.627C0.127,-0.623 0.14,-0.621 0.147,-0.62C0.164,-0.618 0.189,-0.615 0.222,-0.611C0.23,-0.61 0.234,-0.607 0.234,-0.603C0.234,-0.59 0.233,-0.57 0.231,-0.543C0.229,-0.517 0.228,-0.497 0.228,-0.484C0.228,-0.468 0.233,-0.46 0.242,-0.46C0.254,-0.46 0.271,-0.46 0.294,-0.461C0.317,-0.462 0.334,-0.463 0.346,-0.463C0.353,-0.463 0.357,-0.46 0.357,-0.456C0.357,-0.448 0.356,-0.437 0.354,-0.422C0.353,-0.407 0.352,-0.396 0.352,-0.388C0.352,-0.38 0.353,-0.328 0.353,-0.32C0.353,-0.313 0.348,-0.31 0.339,-0.31C0.332,-0.31 0.321,-0.31 0.306,-0.31C0.291,-0.311 0.28,-0.311 0.273,-0.311L0.237,-0.311C0.232,-0.311 0.229,-0.304 0.229,-0.29L0.229,-0.255C0.23,-0.239 0.23,-0.228 0.23,-0.22C0.23,-0.193 0.233,-0.174 0.239,-0.164C0.248,-0.15 0.265,-0.143 0.291,-0.143C0.299,-0.143 0.311,-0.144 0.326,-0.148C0.341,-0.152 0.352,-0.154 0.358,-0.154C0.365,-0.154 0.368,-0.15 0.368,-0.143Z" style="fill:white;fill-rule:nonzero;"/>
            </g>
            <g transform="matrix(170,0,0,170,1000.83,587)">
                <path d="M0.489,-0.265C0.489,-0.232 0.478,-0.214 0.457,-0.209C0.453,-0.208 0.42,-0.205 0.356,-0.198C0.318,-0.194 0.26,-0.189 0.184,-0.183C0.189,-0.162 0.202,-0.146 0.226,-0.135C0.244,-0.126 0.266,-0.121 0.29,-0.121C0.319,-0.121 0.348,-0.129 0.377,-0.145C0.39,-0.152 0.402,-0.16 0.415,-0.168C0.421,-0.165 0.433,-0.148 0.449,-0.118C0.465,-0.088 0.473,-0.069 0.473,-0.061C0.473,-0.059 0.471,-0.055 0.466,-0.05C0.426,-0.007 0.364,0.014 0.281,0.014C0.203,0.014 0.141,-0.008 0.093,-0.054C0.044,-0.1 0.02,-0.161 0.02,-0.238C0.02,-0.313 0.042,-0.374 0.085,-0.422C0.13,-0.471 0.19,-0.496 0.264,-0.496C0.327,-0.496 0.38,-0.473 0.423,-0.428C0.467,-0.382 0.489,-0.328 0.489,-0.265ZM0.318,-0.295C0.318,-0.315 0.311,-0.333 0.296,-0.348C0.282,-0.363 0.265,-0.371 0.245,-0.371C0.225,-0.371 0.208,-0.362 0.194,-0.345C0.182,-0.329 0.176,-0.311 0.176,-0.289C0.176,-0.28 0.18,-0.276 0.189,-0.276C0.214,-0.276 0.251,-0.28 0.302,-0.287C0.313,-0.289 0.318,-0.291 0.318,-0.295Z" style="fill:white;fill-rule:nonzero;"/>
            </g>
            <g transform="matrix(170,0,0,170,1128.49,587)">
                <path d="M0.773,-0.015C0.773,-0.005 0.768,-0 0.759,-0L0.586,-0C0.576,-0 0.572,-0.006 0.572,-0.017C0.572,-0.05 0.573,-0.099 0.575,-0.165C0.578,-0.231 0.579,-0.28 0.579,-0.313C0.579,-0.322 0.578,-0.327 0.575,-0.328C0.571,-0.326 0.549,-0.276 0.509,-0.177C0.486,-0.119 0.462,-0.062 0.439,-0.004C0.436,0.004 0.432,0.008 0.427,0.009C0.425,0.01 0.419,0.01 0.407,0.01C0.39,0.01 0.38,0.007 0.377,-0C0.359,-0.036 0.336,-0.088 0.308,-0.156C0.277,-0.229 0.254,-0.281 0.239,-0.313C0.238,-0.315 0.237,-0.316 0.234,-0.318C0.232,-0.315 0.231,-0.311 0.231,-0.304C0.231,-0.272 0.232,-0.224 0.233,-0.161C0.235,-0.097 0.236,-0.049 0.236,-0.017C0.236,-0.006 0.231,-0 0.222,-0L0.059,-0C0.053,-0 0.049,-0.001 0.047,-0.003C0.046,-0.005 0.045,-0.009 0.045,-0.014C0.045,-0.05 0.047,-0.103 0.05,-0.174C0.053,-0.245 0.055,-0.299 0.055,-0.334C0.055,-0.372 0.054,-0.443 0.05,-0.546C0.05,-0.573 0.049,-0.614 0.046,-0.667L0.045,-0.675C0.045,-0.682 0.052,-0.685 0.066,-0.685C0.084,-0.685 0.111,-0.686 0.146,-0.687C0.182,-0.688 0.209,-0.688 0.227,-0.688C0.231,-0.688 0.236,-0.682 0.242,-0.668L0.385,-0.355C0.395,-0.334 0.403,-0.323 0.41,-0.323C0.414,-0.323 0.421,-0.335 0.433,-0.36C0.466,-0.428 0.515,-0.531 0.579,-0.669C0.585,-0.682 0.591,-0.688 0.597,-0.688C0.607,-0.688 0.621,-0.688 0.64,-0.687C0.659,-0.686 0.673,-0.685 0.683,-0.685C0.691,-0.685 0.704,-0.686 0.72,-0.688C0.737,-0.689 0.75,-0.69 0.758,-0.69C0.768,-0.69 0.772,-0.686 0.772,-0.678C0.772,-0.64 0.771,-0.582 0.768,-0.506C0.765,-0.43 0.764,-0.372 0.764,-0.334C0.764,-0.299 0.766,-0.245 0.769,-0.174C0.771,-0.103 0.773,-0.05 0.773,-0.015Z" style="fill:white;fill-rule:nonzero;"/>
            </g>
            <g transform="matrix(170,0,0,170,1267.7,587)">
                <path d="M0.532,-0.244C0.532,-0.219 0.534,-0.182 0.537,-0.132C0.54,-0.083 0.541,-0.046 0.541,-0.021C0.541,-0.008 0.535,-0.001 0.524,-0C0.484,0.003 0.437,0.004 0.385,0.004C0.379,0.004 0.375,-0.005 0.373,-0.023C0.371,-0.042 0.368,-0.052 0.365,-0.052C0.363,-0.051 0.359,-0.048 0.355,-0.044C0.319,-0.007 0.279,0.011 0.238,0.011C0.174,0.011 0.122,-0.014 0.08,-0.064C0.041,-0.111 0.021,-0.167 0.021,-0.232C0.021,-0.307 0.041,-0.368 0.082,-0.414C0.124,-0.461 0.182,-0.485 0.256,-0.485C0.307,-0.485 0.347,-0.467 0.377,-0.431C0.378,-0.43 0.379,-0.429 0.38,-0.429C0.383,-0.429 0.387,-0.437 0.39,-0.452C0.394,-0.468 0.399,-0.476 0.404,-0.476C0.416,-0.476 0.439,-0.473 0.473,-0.466C0.505,-0.459 0.528,-0.454 0.542,-0.449C0.547,-0.447 0.549,-0.445 0.549,-0.441C0.549,-0.44 0.549,-0.437 0.548,-0.431C0.537,-0.372 0.532,-0.31 0.532,-0.244ZM0.375,-0.241C0.375,-0.269 0.366,-0.292 0.349,-0.31C0.331,-0.328 0.309,-0.337 0.281,-0.337C0.253,-0.337 0.23,-0.328 0.213,-0.31C0.196,-0.292 0.187,-0.269 0.187,-0.241C0.187,-0.215 0.196,-0.192 0.214,-0.173C0.233,-0.154 0.255,-0.145 0.281,-0.145C0.308,-0.145 0.331,-0.154 0.349,-0.172C0.366,-0.19 0.375,-0.213 0.375,-0.241Z" style="fill:white;fill-rule:nonzero;"/>
            </g>
            <g transform="matrix(170,0,0,170,1367.64,587)">
                <path d="M0.527,-0.014C0.527,-0.005 0.522,-0 0.513,0.001C0.504,0.002 0.48,0.003 0.442,0.003C0.401,0.003 0.375,0.002 0.366,-0C0.356,-0.002 0.351,-0.009 0.351,-0.02C0.351,-0.035 0.352,-0.058 0.353,-0.089C0.354,-0.12 0.354,-0.144 0.354,-0.159C0.354,-0.171 0.354,-0.189 0.353,-0.213C0.352,-0.237 0.352,-0.255 0.352,-0.267C0.352,-0.312 0.333,-0.334 0.294,-0.334C0.281,-0.334 0.266,-0.328 0.25,-0.317C0.231,-0.305 0.222,-0.293 0.222,-0.281L0.222,-0.017C0.222,-0.006 0.217,-0 0.207,0.001C0.196,0.002 0.172,0.003 0.137,0.003C0.099,0.003 0.074,0.002 0.063,-0C0.053,-0.002 0.048,-0.007 0.048,-0.016C0.048,-0.042 0.048,-0.08 0.048,-0.131C0.049,-0.182 0.049,-0.22 0.049,-0.246C0.049,-0.327 0.042,-0.391 0.03,-0.437C0.029,-0.44 0.029,-0.442 0.029,-0.444C0.029,-0.45 0.031,-0.453 0.036,-0.455C0.057,-0.457 0.084,-0.461 0.118,-0.466C0.17,-0.476 0.199,-0.481 0.206,-0.481C0.209,-0.481 0.212,-0.47 0.214,-0.448C0.216,-0.426 0.219,-0.415 0.222,-0.415C0.219,-0.415 0.236,-0.426 0.274,-0.449C0.313,-0.472 0.347,-0.483 0.376,-0.483C0.417,-0.483 0.452,-0.473 0.479,-0.454C0.51,-0.431 0.526,-0.4 0.526,-0.36L0.526,-0.204C0.526,-0.183 0.526,-0.151 0.526,-0.109C0.527,-0.067 0.527,-0.035 0.527,-0.014Z" style="fill:white;fill-rule:nonzero;"/>
            </g>
            <g transform="matrix(170,0,0,170,1464.01,587)">
                <path d="M0.532,-0.244C0.532,-0.219 0.534,-0.182 0.537,-0.132C0.54,-0.083 0.541,-0.046 0.541,-0.021C0.541,-0.008 0.535,-0.001 0.524,-0C0.484,0.003 0.437,0.004 0.385,0.004C0.379,0.004 0.375,-0.005 0.373,-0.023C0.371,-0.042 0.368,-0.052 0.365,-0.052C0.363,-0.051 0.359,-0.048 0.355,-0.044C0.319,-0.007 0.279,0.011 0.238,0.011C0.174,0.011 0.122,-0.014 0.08,-0.064C0.041,-0.111 0.021,-0.167 0.021,-0.232C0.021,-0.307 0.041,-0.368 0.082,-0.414C0.124,-0.461 0.182,-0.485 0.256,-0.485C0.307,-0.485 0.347,-0.467 0.377,-0.431C0.378,-0.43 0.379,-0.429 0.38,-0.429C0.383,-0.429 0.387,-0.437 0.39,-0.452C0.394,-0.468 0.399,-0.476 0.404,-0.476C0.416,-0.476 0.439,-0.473 0.473,-0.466C0.505,-0.459 0.528,-0.454 0.542,-0.449C0.547,-0.447 0.549,-0.445 0.549,-0.441C0.549,-0.44 0.549,-0.437 0.548,-0.431C0.537,-0.372 0.532,-0.31 0.532,-0.244ZM0.375,-0.241C0.375,-0.269 0.366,-0.292 0.349,-0.31C0.331,-0.328 0.309,-0.337 0.281,-0.337C0.253,-0.337 0.23,-0.328 0.213,-0.31C0.196,-0.292 0.187,-0.269 0.187,-0.241C0.187,-0.215 0.196,-0.192 0.214,-0.173C0.233,-0.154 0.255,-0.145 0.281,-0.145C0.308,-0.145 0.331,-0.154 0.349,-0.172C0.366,-0.19 0.375,-0.213 0.375,-0.241Z" style="fill:white;fill-rule:nonzero;"/>
            </g>
            <g transform="matrix(170,0,0,170,1563.95,587)">
                <path d="M0.528,-0.127C0.528,-0.034 0.508,0.032 0.469,0.073C0.429,0.114 0.362,0.135 0.268,0.135C0.241,0.135 0.203,0.13 0.156,0.122C0.096,0.111 0.066,0.097 0.066,0.083C0.066,0.076 0.073,0.044 0.087,-0.013C0.089,-0.022 0.093,-0.027 0.098,-0.027C0.099,-0.027 0.101,-0.026 0.103,-0.025C0.153,-0 0.2,0.012 0.242,0.012C0.266,0.012 0.289,0.006 0.312,-0.005C0.34,-0.019 0.354,-0.037 0.354,-0.058L0.354,-0.091C0.321,-0.06 0.278,-0.044 0.226,-0.044C0.165,-0.044 0.115,-0.066 0.075,-0.11C0.037,-0.152 0.018,-0.204 0.018,-0.266C0.018,-0.328 0.036,-0.38 0.073,-0.421C0.111,-0.464 0.161,-0.485 0.222,-0.485C0.271,-0.485 0.309,-0.467 0.335,-0.432C0.34,-0.425 0.344,-0.421 0.346,-0.421C0.349,-0.421 0.35,-0.427 0.35,-0.439C0.35,-0.465 0.353,-0.478 0.359,-0.478C0.364,-0.478 0.392,-0.475 0.443,-0.47C0.494,-0.465 0.521,-0.462 0.523,-0.461C0.528,-0.459 0.531,-0.455 0.531,-0.448C0.531,-0.426 0.53,-0.392 0.529,-0.348C0.528,-0.303 0.527,-0.27 0.527,-0.247C0.527,-0.234 0.527,-0.214 0.527,-0.187C0.528,-0.16 0.528,-0.14 0.528,-0.127ZM0.359,-0.262C0.359,-0.286 0.351,-0.306 0.335,-0.324C0.319,-0.341 0.3,-0.35 0.276,-0.35C0.252,-0.35 0.232,-0.341 0.216,-0.323C0.201,-0.306 0.193,-0.285 0.193,-0.261C0.193,-0.237 0.201,-0.217 0.217,-0.2C0.233,-0.182 0.253,-0.174 0.276,-0.174C0.3,-0.174 0.319,-0.183 0.335,-0.2C0.351,-0.218 0.359,-0.238 0.359,-0.262Z" style="fill:white;fill-rule:nonzero;"/>
            </g>
            <g transform="matrix(170,0,0,170,1660.99,587)">
                <path d="M0.489,-0.265C0.489,-0.232 0.478,-0.214 0.457,-0.209C0.453,-0.208 0.42,-0.205 0.356,-0.198C0.318,-0.194 0.26,-0.189 0.184,-0.183C0.189,-0.162 0.202,-0.146 0.226,-0.135C0.244,-0.126 0.266,-0.121 0.29,-0.121C0.319,-0.121 0.348,-0.129 0.377,-0.145C0.39,-0.152 0.402,-0.16 0.415,-0.168C0.421,-0.165 0.433,-0.148 0.449,-0.118C0.465,-0.088 0.473,-0.069 0.473,-0.061C0.473,-0.059 0.471,-0.055 0.466,-0.05C0.426,-0.007 0.364,0.014 0.281,0.014C0.203,0.014 0.141,-0.008 0.093,-0.054C0.044,-0.1 0.02,-0.161 0.02,-0.238C0.02,-0.313 0.042,-0.374 0.085,-0.422C0.13,-0.471 0.19,-0.496 0.264,-0.496C0.327,-0.496 0.38,-0.473 0.423,-0.428C0.467,-0.382 0.489,-0.328 0.489,-0.265ZM0.318,-0.295C0.318,-0.315 0.311,-0.333 0.296,-0.348C0.282,-0.363 0.265,-0.371 0.245,-0.371C0.225,-0.371 0.208,-0.362 0.194,-0.345C0.182,-0.329 0.176,-0.311 0.176,-0.289C0.176,-0.28 0.18,-0.276 0.189,-0.276C0.214,-0.276 0.251,-0.28 0.302,-0.287C0.313,-0.289 0.318,-0.291 0.318,-0.295Z" style="fill:white;fill-rule:nonzero;"/>
            </g>
            <g transform="matrix(170,0,0,170,1746.16,587)">
                <path d="M0.822,-0.018C0.822,-0.007 0.817,-0 0.807,0.001C0.797,0.002 0.773,0.003 0.735,0.003C0.695,0.003 0.67,0.002 0.661,-0C0.651,-0.002 0.646,-0.01 0.646,-0.024C0.646,-0.039 0.646,-0.061 0.647,-0.091C0.648,-0.121 0.649,-0.143 0.649,-0.158C0.649,-0.215 0.648,-0.256 0.647,-0.28C0.645,-0.319 0.627,-0.338 0.592,-0.338C0.576,-0.338 0.561,-0.331 0.546,-0.318C0.531,-0.306 0.523,-0.292 0.521,-0.276C0.52,-0.262 0.519,-0.222 0.519,-0.156C0.519,-0.14 0.52,-0.117 0.521,-0.086C0.521,-0.055 0.522,-0.032 0.522,-0.016C0.522,-0.005 0.517,-0 0.508,-0L0.36,-0C0.351,-0 0.346,-0.007 0.346,-0.02C0.346,-0.035 0.347,-0.058 0.348,-0.089C0.349,-0.119 0.349,-0.143 0.349,-0.158C0.349,-0.17 0.349,-0.188 0.348,-0.213C0.347,-0.237 0.347,-0.256 0.347,-0.268C0.347,-0.315 0.329,-0.338 0.294,-0.338C0.28,-0.338 0.264,-0.332 0.248,-0.321C0.229,-0.309 0.22,-0.297 0.22,-0.283C0.22,-0.254 0.22,-0.209 0.221,-0.15C0.221,-0.091 0.221,-0.047 0.221,-0.018C0.221,-0.01 0.22,-0.005 0.218,-0.003C0.216,-0.001 0.211,0 0.203,0.001C0.188,0.002 0.165,0.003 0.134,0.003C0.113,0.003 0.09,0.002 0.064,-0C0.056,-0.001 0.051,-0.002 0.05,-0.003C0.049,-0.005 0.048,-0.01 0.048,-0.018C0.048,-0.044 0.048,-0.083 0.048,-0.135C0.049,-0.187 0.049,-0.226 0.049,-0.252C0.049,-0.305 0.045,-0.365 0.037,-0.432C0.036,-0.436 0.036,-0.439 0.036,-0.441C0.036,-0.446 0.038,-0.45 0.043,-0.452C0.05,-0.455 0.064,-0.458 0.083,-0.459C0.108,-0.462 0.122,-0.463 0.127,-0.464C0.13,-0.465 0.143,-0.468 0.166,-0.474C0.181,-0.479 0.194,-0.481 0.204,-0.481C0.21,-0.481 0.214,-0.47 0.214,-0.447C0.214,-0.424 0.215,-0.413 0.218,-0.413C0.221,-0.414 0.225,-0.417 0.229,-0.42C0.258,-0.443 0.281,-0.458 0.298,-0.467C0.323,-0.479 0.351,-0.485 0.38,-0.485C0.41,-0.485 0.437,-0.478 0.46,-0.465C0.486,-0.45 0.503,-0.429 0.511,-0.402C0.528,-0.425 0.552,-0.445 0.583,-0.461C0.613,-0.477 0.642,-0.485 0.671,-0.485C0.714,-0.485 0.749,-0.475 0.776,-0.455C0.806,-0.433 0.822,-0.401 0.822,-0.359C0.822,-0.342 0.821,-0.316 0.82,-0.281C0.819,-0.246 0.819,-0.22 0.819,-0.203C0.819,-0.183 0.819,-0.152 0.82,-0.11C0.821,-0.069 0.822,-0.039 0.822,-0.018Z" style="fill:white;fill-rule:nonzero;"/>
            </g>
            <g transform="matrix(170,0,0,170,1894.57,587)">
                <path d="M0.489,-0.265C0.489,-0.232 0.478,-0.214 0.457,-0.209C0.453,-0.208 0.42,-0.205 0.356,-0.198C0.318,-0.194 0.26,-0.189 0.184,-0.183C0.189,-0.162 0.202,-0.146 0.226,-0.135C0.244,-0.126 0.266,-0.121 0.29,-0.121C0.319,-0.121 0.348,-0.129 0.377,-0.145C0.39,-0.152 0.402,-0.16 0.415,-0.168C0.421,-0.165 0.433,-0.148 0.449,-0.118C0.465,-0.088 0.473,-0.069 0.473,-0.061C0.473,-0.059 0.471,-0.055 0.466,-0.05C0.426,-0.007 0.364,0.014 0.281,0.014C0.203,0.014 0.141,-0.008 0.093,-0.054C0.044,-0.1 0.02,-0.161 0.02,-0.238C0.02,-0.313 0.042,-0.374 0.085,-0.422C0.13,-0.471 0.19,-0.496 0.264,-0.496C0.327,-0.496 0.38,-0.473 0.423,-0.428C0.467,-0.382 0.489,-0.328 0.489,-0.265ZM0.318,-0.295C0.318,-0.315 0.311,-0.333 0.296,-0.348C0.282,-0.363 0.265,-0.371 0.245,-0.371C0.225,-0.371 0.208,-0.362 0.194,-0.345C0.182,-0.329 0.176,-0.311 0.176,-0.289C0.176,-0.28 0.18,-0.276 0.189,-0.276C0.214,-0.276 0.251,-0.28 0.302,-0.287C0.313,-0.289 0.318,-0.291 0.318,-0.295Z" style="fill:white;fill-rule:nonzero;"/>
            </g>
            <g transform="matrix(170,0,0,170,1979.74,587)">
                <path d="M0.527,-0.014C0.527,-0.005 0.522,-0 0.513,0.001C0.504,0.002 0.48,0.003 0.442,0.003C0.401,0.003 0.375,0.002 0.366,-0C0.356,-0.002 0.351,-0.009 0.351,-0.02C0.351,-0.035 0.352,-0.058 0.353,-0.089C0.354,-0.12 0.354,-0.144 0.354,-0.159C0.354,-0.171 0.354,-0.189 0.353,-0.213C0.352,-0.237 0.352,-0.255 0.352,-0.267C0.352,-0.312 0.333,-0.334 0.294,-0.334C0.281,-0.334 0.266,-0.328 0.25,-0.317C0.231,-0.305 0.222,-0.293 0.222,-0.281L0.222,-0.017C0.222,-0.006 0.217,-0 0.207,0.001C0.196,0.002 0.172,0.003 0.137,0.003C0.099,0.003 0.074,0.002 0.063,-0C0.053,-0.002 0.048,-0.007 0.048,-0.016C0.048,-0.042 0.048,-0.08 0.048,-0.131C0.049,-0.182 0.049,-0.22 0.049,-0.246C0.049,-0.327 0.042,-0.391 0.03,-0.437C0.029,-0.44 0.029,-0.442 0.029,-0.444C0.029,-0.45 0.031,-0.453 0.036,-0.455C0.057,-0.457 0.084,-0.461 0.118,-0.466C0.17,-0.476 0.199,-0.481 0.206,-0.481C0.209,-0.481 0.212,-0.47 0.214,-0.448C0.216,-0.426 0.219,-0.415 0.222,-0.415C0.219,-0.415 0.236,-0.426 0.274,-0.449C0.313,-0.472 0.347,-0.483 0.376,-0.483C0.417,-0.483 0.452,-0.473 0.479,-0.454C0.51,-0.431 0.526,-0.4 0.526,-0.36L0.526,-0.204C0.526,-0.183 0.526,-0.151 0.526,-0.109C0.527,-0.067 0.527,-0.035 0.527,-0.014Z" style="fill:white;fill-rule:nonzero;"/>
            </g>
            <g transform="matrix(170,0,0,170,2076.11,587)">
                <path d="M0.368,-0.143C0.368,-0.133 0.367,-0.118 0.364,-0.099C0.362,-0.079 0.361,-0.064 0.361,-0.055C0.361,-0.046 0.36,-0.04 0.358,-0.037C0.356,-0.035 0.351,-0.031 0.342,-0.026C0.3,-0.003 0.253,0.009 0.202,0.009C0.108,0.009 0.061,-0.027 0.061,-0.099C0.061,-0.121 0.062,-0.153 0.063,-0.196C0.065,-0.239 0.066,-0.271 0.066,-0.293C0.066,-0.307 0.058,-0.314 0.041,-0.314L0.035,-0.314C0.032,-0.314 0.03,-0.314 0.028,-0.314C0.016,-0.314 0.01,-0.318 0.01,-0.327C0.01,-0.332 0.01,-0.34 0.011,-0.351C0.012,-0.362 0.012,-0.37 0.012,-0.375C0.012,-0.382 0.012,-0.392 0.011,-0.406C0.01,-0.42 0.01,-0.431 0.01,-0.438C0.01,-0.444 0.02,-0.448 0.041,-0.448C0.053,-0.449 0.059,-0.452 0.06,-0.458C0.062,-0.47 0.063,-0.49 0.062,-0.517C0.061,-0.559 0.06,-0.579 0.06,-0.577C0.06,-0.614 0.064,-0.633 0.071,-0.633C0.08,-0.633 0.092,-0.631 0.108,-0.627C0.127,-0.623 0.14,-0.621 0.147,-0.62C0.164,-0.618 0.189,-0.615 0.222,-0.611C0.23,-0.61 0.234,-0.607 0.234,-0.603C0.234,-0.59 0.233,-0.57 0.231,-0.543C0.229,-0.517 0.228,-0.497 0.228,-0.484C0.228,-0.468 0.233,-0.46 0.242,-0.46C0.254,-0.46 0.271,-0.46 0.294,-0.461C0.317,-0.462 0.334,-0.463 0.346,-0.463C0.353,-0.463 0.357,-0.46 0.357,-0.456C0.357,-0.448 0.356,-0.437 0.354,-0.422C0.353,-0.407 0.352,-0.396 0.352,-0.388C0.352,-0.38 0.353,-0.328 0.353,-0.32C0.353,-0.313 0.348,-0.31 0.339,-0.31C0.332,-0.31 0.321,-0.31 0.306,-0.31C0.291,-0.311 0.28,-0.311 0.273,-0.311L0.237,-0.311C0.232,-0.311 0.229,-0.304 0.229,-0.29L0.229,-0.255C0.23,-0.239 0.23,-0.228 0.23,-0.22C0.23,-0.193 0.233,-0.174 0.239,-0.164C0.248,-0.15 0.265,-0.143 0.291,-0.143C0.299,-0.143 0.311,-0.144 0.326,-0.148C0.341,-0.152 0.352,-0.154 0.358,-0.154C0.365,-0.154 0.368,-0.15 0.368,-0.143Z" style="fill:white;fill-rule:nonzero;"/>
            </g>
            <g transform="matrix(170,0,0,170,2182.86,587)">
                <path d="M0.342,-0.315C0.342,-0.307 0.338,-0.303 0.329,-0.303C0.294,-0.303 0.266,-0.304 0.246,-0.306C0.247,-0.282 0.248,-0.248 0.249,-0.204C0.249,-0.186 0.251,-0.153 0.253,-0.107C0.256,-0.066 0.257,-0.034 0.257,-0.011C0.257,-0.004 0.252,0 0.243,0.001C0.232,0.002 0.204,0.003 0.16,0.003C0.123,0.003 0.099,0.002 0.088,-0C0.077,-0.002 0.072,-0.009 0.072,-0.02L0.072,-0.289C0.072,-0.299 0.065,-0.303 0.052,-0.303C0.05,-0.303 0.033,-0.302 0.03,-0.302C0.021,-0.302 0.016,-0.305 0.016,-0.31C0.013,-0.338 0.012,-0.38 0.012,-0.434C0.012,-0.446 0.018,-0.453 0.03,-0.456C0.041,-0.457 0.053,-0.457 0.064,-0.458C0.062,-0.484 0.062,-0.504 0.062,-0.519C0.062,-0.575 0.072,-0.616 0.094,-0.641C0.138,-0.692 0.208,-0.717 0.304,-0.717C0.311,-0.717 0.315,-0.715 0.316,-0.711C0.319,-0.696 0.322,-0.675 0.327,-0.646C0.327,-0.643 0.33,-0.634 0.333,-0.619C0.336,-0.607 0.338,-0.597 0.338,-0.591C0.338,-0.583 0.326,-0.578 0.303,-0.576C0.277,-0.573 0.26,-0.568 0.254,-0.561C0.243,-0.549 0.238,-0.526 0.238,-0.492C0.238,-0.481 0.239,-0.471 0.24,-0.462C0.249,-0.462 0.264,-0.462 0.283,-0.463C0.302,-0.464 0.316,-0.464 0.326,-0.464C0.336,-0.464 0.341,-0.46 0.341,-0.453C0.341,-0.438 0.341,-0.415 0.341,-0.384C0.342,-0.353 0.342,-0.33 0.342,-0.315Z" style="fill:white;fill-rule:nonzero;"/>
            </g>
            <g transform="matrix(170,0,0,170,2242.87,587)">
                <path d="M0.511,-0.24C0.511,-0.166 0.488,-0.106 0.443,-0.06C0.398,-0.013 0.338,0.01 0.264,0.01C0.193,0.01 0.134,-0.013 0.087,-0.059C0.041,-0.104 0.018,-0.163 0.018,-0.234C0.018,-0.31 0.04,-0.371 0.084,-0.418C0.129,-0.465 0.189,-0.489 0.264,-0.489C0.338,-0.489 0.397,-0.466 0.443,-0.419C0.488,-0.374 0.511,-0.314 0.511,-0.24ZM0.351,-0.24C0.351,-0.266 0.343,-0.289 0.327,-0.308C0.311,-0.328 0.291,-0.338 0.265,-0.338C0.239,-0.338 0.218,-0.328 0.202,-0.308C0.186,-0.289 0.178,-0.266 0.178,-0.24C0.178,-0.214 0.186,-0.191 0.202,-0.172C0.218,-0.152 0.239,-0.142 0.265,-0.142C0.291,-0.142 0.312,-0.152 0.328,-0.172C0.343,-0.191 0.351,-0.214 0.351,-0.24Z" style="fill:white;fill-rule:nonzero;"/>
            </g>
            <g transform="matrix(170,0,0,170,2332.77,587)">
                <path d="M0.365,-0.304C0.365,-0.292 0.358,-0.285 0.344,-0.285C0.338,-0.285 0.329,-0.285 0.317,-0.286C0.305,-0.287 0.296,-0.288 0.291,-0.288C0.264,-0.288 0.245,-0.283 0.235,-0.275C0.226,-0.266 0.221,-0.249 0.221,-0.224C0.221,-0.21 0.221,-0.188 0.221,-0.16C0.222,-0.131 0.222,-0.11 0.222,-0.096C0.222,-0.087 0.223,-0.073 0.224,-0.054C0.225,-0.035 0.226,-0.021 0.226,-0.012C0.226,-0.004 0.221,0 0.21,0.001C0.194,0.002 0.17,0.003 0.138,0.003C0.107,0.003 0.083,0.002 0.064,-0C0.053,-0.001 0.048,-0.007 0.048,-0.016C0.048,-0.042 0.048,-0.081 0.048,-0.133C0.049,-0.185 0.049,-0.224 0.049,-0.25C0.049,-0.326 0.042,-0.389 0.028,-0.439C0.027,-0.442 0.027,-0.444 0.027,-0.446C0.027,-0.451 0.029,-0.454 0.034,-0.456C0.052,-0.458 0.078,-0.462 0.113,-0.467C0.164,-0.477 0.191,-0.482 0.192,-0.482C0.198,-0.482 0.202,-0.472 0.204,-0.451C0.205,-0.431 0.208,-0.42 0.212,-0.42C0.208,-0.42 0.221,-0.429 0.252,-0.446C0.284,-0.463 0.314,-0.472 0.343,-0.472C0.361,-0.472 0.37,-0.468 0.37,-0.46C0.37,-0.451 0.369,-0.437 0.367,-0.42C0.365,-0.401 0.364,-0.388 0.364,-0.38C0.364,-0.37 0.364,-0.358 0.364,-0.342C0.365,-0.323 0.365,-0.31 0.365,-0.304Z" style="fill:white;fill-rule:nonzero;"/>
            </g>
            <g transform="matrix(170,0,0,170,2440.02,587)">
                <path d="M0.627,-0.005C0.627,-0.003 0.624,-0.001 0.617,-0C0.605,0.002 0.574,0.003 0.524,0.003C0.481,0.003 0.452,0.002 0.437,-0C0.43,-0.001 0.426,-0.002 0.425,-0.002C0.423,-0.003 0.421,-0.007 0.418,-0.012C0.413,-0.025 0.406,-0.044 0.396,-0.069C0.384,-0.101 0.364,-0.149 0.337,-0.213C0.331,-0.226 0.318,-0.233 0.296,-0.234C0.306,-0.233 0.289,-0.233 0.246,-0.233C0.241,-0.233 0.239,-0.225 0.239,-0.208C0.239,-0.186 0.241,-0.153 0.245,-0.109C0.249,-0.065 0.251,-0.032 0.251,-0.01C0.251,-0.004 0.25,-0.001 0.247,-0C0.242,0 0.237,0.001 0.233,0.001C0.214,0.002 0.184,0.003 0.143,0.003C0.097,0.003 0.069,0.002 0.059,-0C0.05,-0.002 0.045,-0.007 0.045,-0.015C0.045,-0.051 0.047,-0.105 0.05,-0.177C0.053,-0.25 0.055,-0.304 0.055,-0.34C0.055,-0.478 0.052,-0.585 0.046,-0.662L0.045,-0.669C0.045,-0.674 0.05,-0.678 0.061,-0.68C0.071,-0.682 0.121,-0.684 0.21,-0.686C0.27,-0.687 0.318,-0.688 0.354,-0.688C0.428,-0.688 0.489,-0.671 0.536,-0.638C0.589,-0.6 0.615,-0.545 0.615,-0.474C0.615,-0.427 0.608,-0.389 0.595,-0.36C0.581,-0.332 0.556,-0.305 0.519,-0.278C0.512,-0.273 0.508,-0.268 0.508,-0.263C0.508,-0.264 0.528,-0.223 0.567,-0.141C0.607,-0.059 0.627,-0.013 0.627,-0.005ZM0.422,-0.443C0.422,-0.483 0.409,-0.51 0.383,-0.525C0.363,-0.537 0.331,-0.543 0.288,-0.543C0.257,-0.543 0.241,-0.538 0.239,-0.529C0.237,-0.518 0.236,-0.486 0.236,-0.433C0.236,-0.426 0.237,-0.374 0.237,-0.367C0.237,-0.366 0.242,-0.364 0.252,-0.362C0.272,-0.359 0.293,-0.358 0.315,-0.358C0.386,-0.358 0.422,-0.386 0.422,-0.443Z" style="fill:white;fill-rule:nonzero;"/>
            </g>
            <g transform="matrix(170,0,0,170,2548.34,587)">
                <path d="M0.489,-0.265C0.489,-0.232 0.478,-0.214 0.457,-0.209C0.453,-0.208 0.42,-0.205 0.356,-0.198C0.318,-0.194 0.26,-0.189 0.184,-0.183C0.189,-0.162 0.202,-0.146 0.226,-0.135C0.244,-0.126 0.266,-0.121 0.29,-0.121C0.319,-0.121 0.348,-0.129 0.377,-0.145C0.39,-0.152 0.402,-0.16 0.415,-0.168C0.421,-0.165 0.433,-0.148 0.449,-0.118C0.465,-0.088 0.473,-0.069 0.473,-0.061C0.473,-0.059 0.471,-0.055 0.466,-0.05C0.426,-0.007 0.364,0.014 0.281,0.014C0.203,0.014 0.141,-0.008 0.093,-0.054C0.044,-0.1 0.02,-0.161 0.02,-0.238C0.02,-0.313 0.042,-0.374 0.085,-0.422C0.13,-0.471 0.19,-0.496 0.264,-0.496C0.327,-0.496 0.38,-0.473 0.423,-0.428C0.467,-0.382 0.489,-0.328 0.489,-0.265ZM0.318,-0.295C0.318,-0.315 0.311,-0.333 0.296,-0.348C0.282,-0.363 0.265,-0.371 0.245,-0.371C0.225,-0.371 0.208,-0.362 0.194,-0.345C0.182,-0.329 0.176,-0.311 0.176,-0.289C0.176,-0.28 0.18,-0.276 0.189,-0.276C0.214,-0.276 0.251,-0.28 0.302,-0.287C0.313,-0.289 0.318,-0.291 0.318,-0.295Z" style="fill:white;fill-rule:nonzero;"/>
            </g>
            <g transform="matrix(170,0,0,170,2633.51,587)">
                <path d="M0.532,-0.244C0.532,-0.219 0.534,-0.182 0.537,-0.132C0.54,-0.083 0.541,-0.046 0.541,-0.021C0.541,-0.008 0.535,-0.001 0.524,-0C0.484,0.003 0.437,0.004 0.385,0.004C0.379,0.004 0.375,-0.005 0.373,-0.023C0.371,-0.042 0.368,-0.052 0.365,-0.052C0.363,-0.051 0.359,-0.048 0.355,-0.044C0.319,-0.007 0.279,0.011 0.238,0.011C0.174,0.011 0.122,-0.014 0.08,-0.064C0.041,-0.111 0.021,-0.167 0.021,-0.232C0.021,-0.307 0.041,-0.368 0.082,-0.414C0.124,-0.461 0.182,-0.485 0.256,-0.485C0.307,-0.485 0.347,-0.467 0.377,-0.431C0.378,-0.43 0.379,-0.429 0.38,-0.429C0.383,-0.429 0.387,-0.437 0.39,-0.452C0.394,-0.468 0.399,-0.476 0.404,-0.476C0.416,-0.476 0.439,-0.473 0.473,-0.466C0.505,-0.459 0.528,-0.454 0.542,-0.449C0.547,-0.447 0.549,-0.445 0.549,-0.441C0.549,-0.44 0.549,-0.437 0.548,-0.431C0.537,-0.372 0.532,-0.31 0.532,-0.244ZM0.375,-0.241C0.375,-0.269 0.366,-0.292 0.349,-0.31C0.331,-0.328 0.309,-0.337 0.281,-0.337C0.253,-0.337 0.23,-0.328 0.213,-0.31C0.196,-0.292 0.187,-0.269 0.187,-0.241C0.187,-0.215 0.196,-0.192 0.214,-0.173C0.233,-0.154 0.255,-0.145 0.281,-0.145C0.308,-0.145 0.331,-0.154 0.349,-0.172C0.366,-0.19 0.375,-0.213 0.375,-0.241Z" style="fill:white;fill-rule:nonzero;"/>
            </g>
            <g transform="matrix(170,0,0,170,2733.45,587)">
                <path d="M0.365,-0.321C0.364,-0.321 0.354,-0.324 0.335,-0.329C0.316,-0.334 0.3,-0.337 0.288,-0.337C0.259,-0.337 0.236,-0.328 0.219,-0.311C0.201,-0.293 0.193,-0.27 0.193,-0.241C0.193,-0.211 0.202,-0.188 0.221,-0.17C0.24,-0.153 0.265,-0.145 0.295,-0.145C0.309,-0.145 0.325,-0.149 0.343,-0.156C0.361,-0.163 0.37,-0.167 0.369,-0.167C0.374,-0.167 0.381,-0.146 0.39,-0.105C0.398,-0.067 0.401,-0.042 0.401,-0.03C0.401,-0.017 0.381,-0.007 0.341,0.002C0.31,0.009 0.284,0.012 0.265,0.012C0.194,0.012 0.134,-0.012 0.088,-0.06C0.041,-0.108 0.018,-0.168 0.018,-0.24C0.018,-0.312 0.041,-0.371 0.088,-0.42C0.135,-0.469 0.194,-0.493 0.265,-0.493C0.314,-0.493 0.356,-0.483 0.393,-0.462C0.402,-0.457 0.406,-0.453 0.406,-0.449C0.406,-0.444 0.401,-0.425 0.391,-0.391C0.382,-0.358 0.376,-0.338 0.373,-0.332C0.37,-0.325 0.368,-0.321 0.365,-0.321Z" style="fill:white;fill-rule:nonzero;"/>
            </g>
            <g transform="matrix(170,0,0,170,2804.17,587)">
                <path d="M0.368,-0.143C0.368,-0.133 0.367,-0.118 0.364,-0.099C0.362,-0.079 0.361,-0.064 0.361,-0.055C0.361,-0.046 0.36,-0.04 0.358,-0.037C0.356,-0.035 0.351,-0.031 0.342,-0.026C0.3,-0.003 0.253,0.009 0.202,0.009C0.108,0.009 0.061,-0.027 0.061,-0.099C0.061,-0.121 0.062,-0.153 0.063,-0.196C0.065,-0.239 0.066,-0.271 0.066,-0.293C0.066,-0.307 0.058,-0.314 0.041,-0.314L0.035,-0.314C0.032,-0.314 0.03,-0.314 0.028,-0.314C0.016,-0.314 0.01,-0.318 0.01,-0.327C0.01,-0.332 0.01,-0.34 0.011,-0.351C0.012,-0.362 0.012,-0.37 0.012,-0.375C0.012,-0.382 0.012,-0.392 0.011,-0.406C0.01,-0.42 0.01,-0.431 0.01,-0.438C0.01,-0.444 0.02,-0.448 0.041,-0.448C0.053,-0.449 0.059,-0.452 0.06,-0.458C0.062,-0.47 0.063,-0.49 0.062,-0.517C0.061,-0.559 0.06,-0.579 0.06,-0.577C0.06,-0.614 0.064,-0.633 0.071,-0.633C0.08,-0.633 0.092,-0.631 0.108,-0.627C0.127,-0.623 0.14,-0.621 0.147,-0.62C0.164,-0.618 0.189,-0.615 0.222,-0.611C0.23,-0.61 0.234,-0.607 0.234,-0.603C0.234,-0.59 0.233,-0.57 0.231,-0.543C0.229,-0.517 0.228,-0.497 0.228,-0.484C0.228,-0.468 0.233,-0.46 0.242,-0.46C0.254,-0.46 0.271,-0.46 0.294,-0.461C0.317,-0.462 0.334,-0.463 0.346,-0.463C0.353,-0.463 0.357,-0.46 0.357,-0.456C0.357,-0.448 0.356,-0.437 0.354,-0.422C0.353,-0.407 0.352,-0.396 0.352,-0.388C0.352,-0.38 0.353,-0.328 0.353,-0.32C0.353,-0.313 0.348,-0.31 0.339,-0.31C0.332,-0.31 0.321,-0.31 0.306,-0.31C0.291,-0.311 0.28,-0.311 0.273,-0.311L0.237,-0.311C0.232,-0.311 0.229,-0.304 0.229,-0.29L0.229,-0.255C0.23,-0.239 0.23,-0.228 0.23,-0.22C0.23,-0.193 0.233,-0.174 0.239,-0.164C0.248,-0.15 0.265,-0.143 0.291,-0.143C0.299,-0.143 0.311,-0.144 0.326,-0.148C0.341,-0.152 0.352,-0.154 0.358,-0.154C0.365,-0.154 0.368,-0.15 0.368,-0.143Z" style="fill:white;fill-rule:nonzero;"/>
            </g>
        </g>
        <g transform="matrix(0.242429,0,0,0.242429,197.531,290.914)">
            <g transform="matrix(170,0,0,170,702,587)">
                <path d="M0.378,-0.225C0.378,-0.159 0.35,-0.102 0.294,-0.055C0.246,-0.013 0.186,0.014 0.116,0.025C0.114,0.025 0.111,0.025 0.11,0.025C0.102,0.025 0.086,0.003 0.06,-0.043C0.034,-0.089 0.021,-0.117 0.021,-0.127C0.021,-0.131 0.024,-0.133 0.029,-0.134C0.076,-0.145 0.107,-0.154 0.123,-0.161C0.156,-0.178 0.173,-0.203 0.173,-0.236C0.173,-0.257 0.162,-0.281 0.14,-0.307C0.102,-0.351 0.081,-0.376 0.078,-0.381C0.055,-0.415 0.044,-0.452 0.044,-0.493C0.044,-0.553 0.071,-0.602 0.126,-0.642C0.171,-0.674 0.227,-0.695 0.292,-0.705C0.296,-0.705 0.298,-0.706 0.3,-0.706C0.305,-0.706 0.309,-0.702 0.312,-0.694C0.32,-0.67 0.34,-0.627 0.371,-0.565C0.372,-0.563 0.373,-0.561 0.373,-0.56C0.373,-0.555 0.37,-0.552 0.364,-0.552C0.361,-0.552 0.357,-0.552 0.351,-0.553C0.344,-0.554 0.34,-0.555 0.336,-0.555C0.313,-0.555 0.292,-0.549 0.275,-0.539C0.254,-0.526 0.243,-0.509 0.243,-0.487C0.243,-0.467 0.255,-0.443 0.278,-0.414C0.32,-0.361 0.341,-0.334 0.343,-0.332C0.366,-0.296 0.378,-0.26 0.378,-0.225Z" style="fill-rule:nonzero;"/>
            </g>
            <g transform="matrix(170,0,0,170,772.391,587)">
                <path d="M0.368,-0.143C0.368,-0.133 0.367,-0.118 0.364,-0.099C0.362,-0.079 0.361,-0.064 0.361,-0.055C0.361,-0.046 0.36,-0.04 0.358,-0.037C0.356,-0.035 0.351,-0.031 0.342,-0.026C0.3,-0.003 0.253,0.009 0.202,0.009C0.108,0.009 0.061,-0.027 0.061,-0.099C0.061,-0.121 0.062,-0.153 0.063,-0.196C0.065,-0.239 0.066,-0.271 0.066,-0.293C0.066,-0.307 0.058,-0.314 0.041,-0.314L0.035,-0.314C0.032,-0.314 0.03,-0.314 0.028,-0.314C0.016,-0.314 0.01,-0.318 0.01,-0.327C0.01,-0.332 0.01,-0.34 0.011,-0.351C0.012,-0.362 0.012,-0.37 0.012,-0.375C0.012,-0.382 0.012,-0.392 0.011,-0.406C0.01,-0.42 0.01,-0.431 0.01,-0.438C0.01,-0.444 0.02,-0.448 0.041,-0.448C0.053,-0.449 0.059,-0.452 0.06,-0.458C0.062,-0.47 0.063,-0.49 0.062,-0.517C0.061,-0.559 0.06,-0.579 0.06,-0.577C0.06,-0.614 0.064,-0.633 0.071,-0.633C0.08,-0.633 0.092,-0.631 0.108,-0.627C0.127,-0.623 0.14,-0.621 0.147,-0.62C0.164,-0.618 0.189,-0.615 0.222,-0.611C0.23,-0.61 0.234,-0.607 0.234,-0.603C0.234,-0.59 0.233,-0.57 0.231,-0.543C0.229,-0.517 0.228,-0.497 0.228,-0.484C0.228,-0.468 0.233,-0.46 0.242,-0.46C0.254,-0.46 0.271,-0.46 0.294,-0.461C0.317,-0.462 0.334,-0.463 0.346,-0.463C0.353,-0.463 0.357,-0.46 0.357,-0.456C0.357,-0.448 0.356,-0.437 0.354,-0.422C0.353,-0.407 0.352,-0.396 0.352,-0.388C0.352,-0.38 0.353,-0.328 0.353,-0.32C0.353,-0.313 0.348,-0.31 0.339,-0.31C0.332,-0.31 0.321,-0.31 0.306,-0.31C0.291,-0.311 0.28,-0.311 0.273,-0.311L0.237,-0.311C0.232,-0.311 0.229,-0.304 0.229,-0.29L0.229,-0.255C0.23,-0.239 0.23,-0.228 0.23,-0.22C0.23,-0.193 0.233,-0.174 0.239,-0.164C0.248,-0.15 0.265,-0.143 0.291,-0.143C0.299,-0.143 0.311,-0.144 0.326,-0.148C0.341,-0.152 0.352,-0.154 0.358,-0.154C0.365,-0.154 0.368,-0.15 0.368,-0.143Z" style="fill-rule:nonzero;"/>
            </g>
            <g transform="matrix(170,0,0,170,836.639,587)">
                <path d="M0.532,-0.244C0.532,-0.219 0.534,-0.182 0.537,-0.132C0.54,-0.083 0.541,-0.046 0.541,-0.021C0.541,-0.008 0.535,-0.001 0.524,-0C0.484,0.003 0.437,0.004 0.385,0.004C0.379,0.004 0.375,-0.005 0.373,-0.023C0.371,-0.042 0.368,-0.052 0.365,-0.052C0.363,-0.051 0.359,-0.048 0.355,-0.044C0.319,-0.007 0.279,0.011 0.238,0.011C0.174,0.011 0.122,-0.014 0.08,-0.064C0.041,-0.111 0.021,-0.167 0.021,-0.232C0.021,-0.307 0.041,-0.368 0.082,-0.414C0.124,-0.461 0.182,-0.485 0.256,-0.485C0.307,-0.485 0.347,-0.467 0.377,-0.431C0.378,-0.43 0.379,-0.429 0.38,-0.429C0.383,-0.429 0.387,-0.437 0.39,-0.452C0.394,-0.468 0.399,-0.476 0.404,-0.476C0.416,-0.476 0.439,-0.473 0.473,-0.466C0.505,-0.459 0.528,-0.454 0.542,-0.449C0.547,-0.447 0.549,-0.445 0.549,-0.441C0.549,-0.44 0.549,-0.437 0.548,-0.431C0.537,-0.372 0.532,-0.31 0.532,-0.244ZM0.375,-0.241C0.375,-0.269 0.366,-0.292 0.349,-0.31C0.331,-0.328 0.309,-0.337 0.281,-0.337C0.253,-0.337 0.23,-0.328 0.213,-0.31C0.196,-0.292 0.187,-0.269 0.187,-0.241C0.187,-0.215 0.196,-0.192 0.214,-0.173C0.233,-0.154 0.255,-0.145 0.281,-0.145C0.308,-0.145 0.331,-0.154 0.349,-0.172C0.366,-0.19 0.375,-0.213 0.375,-0.241Z" style="fill-rule:nonzero;"/>
            </g>
            <g transform="matrix(170,0,0,170,936.58,587)">
                <path d="M0.368,-0.143C0.368,-0.133 0.367,-0.118 0.364,-0.099C0.362,-0.079 0.361,-0.064 0.361,-0.055C0.361,-0.046 0.36,-0.04 0.358,-0.037C0.356,-0.035 0.351,-0.031 0.342,-0.026C0.3,-0.003 0.253,0.009 0.202,0.009C0.108,0.009 0.061,-0.027 0.061,-0.099C0.061,-0.121 0.062,-0.153 0.063,-0.196C0.065,-0.239 0.066,-0.271 0.066,-0.293C0.066,-0.307 0.058,-0.314 0.041,-0.314L0.035,-0.314C0.032,-0.314 0.03,-0.314 0.028,-0.314C0.016,-0.314 0.01,-0.318 0.01,-0.327C0.01,-0.332 0.01,-0.34 0.011,-0.351C0.012,-0.362 0.012,-0.37 0.012,-0.375C0.012,-0.382 0.012,-0.392 0.011,-0.406C0.01,-0.42 0.01,-0.431 0.01,-0.438C0.01,-0.444 0.02,-0.448 0.041,-0.448C0.053,-0.449 0.059,-0.452 0.06,-0.458C0.062,-0.47 0.063,-0.49 0.062,-0.517C0.061,-0.559 0.06,-0.579 0.06,-0.577C0.06,-0.614 0.064,-0.633 0.071,-0.633C0.08,-0.633 0.092,-0.631 0.108,-0.627C0.127,-0.623 0.14,-0.621 0.147,-0.62C0.164,-0.618 0.189,-0.615 0.222,-0.611C0.23,-0.61 0.234,-0.607 0.234,-0.603C0.234,-0.59 0.233,-0.57 0.231,-0.543C0.229,-0.517 0.228,-0.497 0.228,-0.484C0.228,-0.468 0.233,-0.46 0.242,-0.46C0.254,-0.46 0.271,-0.46 0.294,-0.461C0.317,-0.462 0.334,-0.463 0.346,-0.463C0.353,-0.463 0.357,-0.46 0.357,-0.456C0.357,-0.448 0.356,-0.437 0.354,-0.422C0.353,-0.407 0.352,-0.396 0.352,-0.388C0.352,-0.38 0.353,-0.328 0.353,-0.32C0.353,-0.313 0.348,-0.31 0.339,-0.31C0.332,-0.31 0.321,-0.31 0.306,-0.31C0.291,-0.311 0.28,-0.311 0.273,-0.311L0.237,-0.311C0.232,-0.311 0.229,-0.304 0.229,-0.29L0.229,-0.255C0.23,-0.239 0.23,-0.228 0.23,-0.22C0.23,-0.193 0.233,-0.174 0.239,-0.164C0.248,-0.15 0.265,-0.143 0.291,-0.143C0.299,-0.143 0.311,-0.144 0.326,-0.148C0.341,-0.152 0.352,-0.154 0.358,-0.154C0.365,-0.154 0.368,-0.15 0.368,-0.143Z" style="fill-rule:nonzero;"/>
            </g>
            <g transform="matrix(170,0,0,170,1000.83,587)">
                <path d="M0.489,-0.265C0.489,-0.232 0.478,-0.214 0.457,-0.209C0.453,-0.208 0.42,-0.205 0.356,-0.198C0.318,-0.194 0.26,-0.189 0.184,-0.183C0.189,-0.162 0.202,-0.146 0.226,-0.135C0.244,-0.126 0.266,-0.121 0.29,-0.121C0.319,-0.121 0.348,-0.129 0.377,-0.145C0.39,-0.152 0.402,-0.16 0.415,-0.168C0.421,-0.165 0.433,-0.148 0.449,-0.118C0.465,-0.088 0.473,-0.069 0.473,-0.061C0.473,-0.059 0.471,-0.055 0.466,-0.05C0.426,-0.007 0.364,0.014 0.281,0.014C0.203,0.014 0.141,-0.008 0.093,-0.054C0.044,-0.1 0.02,-0.161 0.02,-0.238C0.02,-0.313 0.042,-0.374 0.085,-0.422C0.13,-0.471 0.19,-0.496 0.264,-0.496C0.327,-0.496 0.38,-0.473 0.423,-0.428C0.467,-0.382 0.489,-0.328 0.489,-0.265ZM0.318,-0.295C0.318,-0.315 0.311,-0.333 0.296,-0.348C0.282,-0.363 0.265,-0.371 0.245,-0.371C0.225,-0.371 0.208,-0.362 0.194,-0.345C0.182,-0.329 0.176,-0.311 0.176,-0.289C0.176,-0.28 0.18,-0.276 0.189,-0.276C0.214,-0.276 0.251,-0.28 0.302,-0.287C0.313,-0.289 0.318,-0.291 0.318,-0.295Z" style="fill-rule:nonzero;"/>
            </g>
            <g transform="matrix(170,0,0,170,1128.49,587)">
                <path d="M0.773,-0.015C0.773,-0.005 0.768,-0 0.759,-0L0.586,-0C0.576,-0 0.572,-0.006 0.572,-0.017C0.572,-0.05 0.573,-0.099 0.575,-0.165C0.578,-0.231 0.579,-0.28 0.579,-0.313C0.579,-0.322 0.578,-0.327 0.575,-0.328C0.571,-0.326 0.549,-0.276 0.509,-0.177C0.486,-0.119 0.462,-0.062 0.439,-0.004C0.436,0.004 0.432,0.008 0.427,0.009C0.425,0.01 0.419,0.01 0.407,0.01C0.39,0.01 0.38,0.007 0.377,-0C0.359,-0.036 0.336,-0.088 0.308,-0.156C0.277,-0.229 0.254,-0.281 0.239,-0.313C0.238,-0.315 0.237,-0.316 0.234,-0.318C0.232,-0.315 0.231,-0.311 0.231,-0.304C0.231,-0.272 0.232,-0.224 0.233,-0.161C0.235,-0.097 0.236,-0.049 0.236,-0.017C0.236,-0.006 0.231,-0 0.222,-0L0.059,-0C0.053,-0 0.049,-0.001 0.047,-0.003C0.046,-0.005 0.045,-0.009 0.045,-0.014C0.045,-0.05 0.047,-0.103 0.05,-0.174C0.053,-0.245 0.055,-0.299 0.055,-0.334C0.055,-0.372 0.054,-0.443 0.05,-0.546C0.05,-0.573 0.049,-0.614 0.046,-0.667L0.045,-0.675C0.045,-0.682 0.052,-0.685 0.066,-0.685C0.084,-0.685 0.111,-0.686 0.146,-0.687C0.182,-0.688 0.209,-0.688 0.227,-0.688C0.231,-0.688 0.236,-0.682 0.242,-0.668L0.385,-0.355C0.395,-0.334 0.403,-0.323 0.41,-0.323C0.414,-0.323 0.421,-0.335 0.433,-0.36C0.466,-0.428 0.515,-0.531 0.579,-0.669C0.585,-0.682 0.591,-0.688 0.597,-0.688C0.607,-0.688 0.621,-0.688 0.64,-0.687C0.659,-0.686 0.673,-0.685 0.683,-0.685C0.691,-0.685 0.704,-0.686 0.72,-0.688C0.737,-0.689 0.75,-0.69 0.758,-0.69C0.768,-0.69 0.772,-0.686 0.772,-0.678C0.772,-0.64 0.771,-0.582 0.768,-0.506C0.765,-0.43 0.764,-0.372 0.764,-0.334C0.764,-0.299 0.766,-0.245 0.769,-0.174C0.771,-0.103 0.773,-0.05 0.773,-0.015Z" style="fill-rule:nonzero;"/>
            </g>
            <g transform="matrix(170,0,0,170,1267.7,587)">
                <path d="M0.532,-0.244C0.532,-0.219 0.534,-0.182 0.537,-0.132C0.54,-0.083 0.541,-0.046 0.541,-0.021C0.541,-0.008 0.535,-0.001 0.524,-0C0.484,0.003 0.437,0.004 0.385,0.004C0.379,0.004 0.375,-0.005 0.373,-0.023C0.371,-0.042 0.368,-0.052 0.365,-0.052C0.363,-0.051 0.359,-0.048 0.355,-0.044C0.319,-0.007 0.279,0.011 0.238,0.011C0.174,0.011 0.122,-0.014 0.08,-0.064C0.041,-0.111 0.021,-0.167 0.021,-0.232C0.021,-0.307 0.041,-0.368 0.082,-0.414C0.124,-0.461 0.182,-0.485 0.256,-0.485C0.307,-0.485 0.347,-0.467 0.377,-0.431C0.378,-0.43 0.379,-0.429 0.38,-0.429C0.383,-0.429 0.387,-0.437 0.39,-0.452C0.394,-0.468 0.399,-0.476 0.404,-0.476C0.416,-0.476 0.439,-0.473 0.473,-0.466C0.505,-0.459 0.528,-0.454 0.542,-0.449C0.547,-0.447 0.549,-0.445 0.549,-0.441C0.549,-0.44 0.549,-0.437 0.548,-0.431C0.537,-0.372 0.532,-0.31 0.532,-0.244ZM0.375,-0.241C0.375,-0.269 0.366,-0.292 0.349,-0.31C0.331,-0.328 0.309,-0.337 0.281,-0.337C0.253,-0.337 0.23,-0.328 0.213,-0.31C0.196,-0.292 0.187,-0.269 0.187,-0.241C0.187,-0.215 0.196,-0.192 0.214,-0.173C0.233,-0.154 0.255,-0.145 0.281,-0.145C0.308,-0.145 0.331,-0.154 0.349,-0.172C0.366,-0.19 0.375,-0.213 0.375,-0.241Z" style="fill-rule:nonzero;"/>
            </g>
            <g transform="matrix(170,0,0,170,1367.64,587)">
                <path d="M0.527,-0.014C0.527,-0.005 0.522,-0 0.513,0.001C0.504,0.002 0.48,0.003 0.442,0.003C0.401,0.003 0.375,0.002 0.366,-0C0.356,-0.002 0.351,-0.009 0.351,-0.02C0.351,-0.035 0.352,-0.058 0.353,-0.089C0.354,-0.12 0.354,-0.144 0.354,-0.159C0.354,-0.171 0.354,-0.189 0.353,-0.213C0.352,-0.237 0.352,-0.255 0.352,-0.267C0.352,-0.312 0.333,-0.334 0.294,-0.334C0.281,-0.334 0.266,-0.328 0.25,-0.317C0.231,-0.305 0.222,-0.293 0.222,-0.281L0.222,-0.017C0.222,-0.006 0.217,-0 0.207,0.001C0.196,0.002 0.172,0.003 0.137,0.003C0.099,0.003 0.074,0.002 0.063,-0C0.053,-0.002 0.048,-0.007 0.048,-0.016C0.048,-0.042 0.048,-0.08 0.048,-0.131C0.049,-0.182 0.049,-0.22 0.049,-0.246C0.049,-0.327 0.042,-0.391 0.03,-0.437C0.029,-0.44 0.029,-0.442 0.029,-0.444C0.029,-0.45 0.031,-0.453 0.036,-0.455C0.057,-0.457 0.084,-0.461 0.118,-0.466C0.17,-0.476 0.199,-0.481 0.206,-0.481C0.209,-0.481 0.212,-0.47 0.214,-0.448C0.216,-0.426 0.219,-0.415 0.222,-0.415C0.219,-0.415 0.236,-0.426 0.274,-0.449C0.313,-0.472 0.347,-0.483 0.376,-0.483C0.417,-0.483 0.452,-0.473 0.479,-0.454C0.51,-0.431 0.526,-0.4 0.526,-0.36L0.526,-0.204C0.526,-0.183 0.526,-0.151 0.526,-0.109C0.527,-0.067 0.527,-0.035 0.527,-0.014Z" style="fill-rule:nonzero;"/>
            </g>
            <g transform="matrix(170,0,0,170,1464.01,587)">
                <path d="M0.532,-0.244C0.532,-0.219 0.534,-0.182 0.537,-0.132C0.54,-0.083 0.541,-0.046 0.541,-0.021C0.541,-0.008 0.535,-0.001 0.524,-0C0.484,0.003 0.437,0.004 0.385,0.004C0.379,0.004 0.375,-0.005 0.373,-0.023C0.371,-0.042 0.368,-0.052 0.365,-0.052C0.363,-0.051 0.359,-0.048 0.355,-0.044C0.319,-0.007 0.279,0.011 0.238,0.011C0.174,0.011 0.122,-0.014 0.08,-0.064C0.041,-0.111 0.021,-0.167 0.021,-0.232C0.021,-0.307 0.041,-0.368 0.082,-0.414C0.124,-0.461 0.182,-0.485 0.256,-0.485C0.307,-0.485 0.347,-0.467 0.377,-0.431C0.378,-0.43 0.379,-0.429 0.38,-0.429C0.383,-0.429 0.387,-0.437 0.39,-0.452C0.394,-0.468 0.399,-0.476 0.404,-0.476C0.416,-0.476 0.439,-0.473 0.473,-0.466C0.505,-0.459 0.528,-0.454 0.542,-0.449C0.547,-0.447 0.549,-0.445 0.549,-0.441C0.549,-0.44 0.549,-0.437 0.548,-0.431C0.537,-0.372 0.532,-0.31 0.532,-0.244ZM0.375,-0.241C0.375,-0.269 0.366,-0.292 0.349,-0.31C0.331,-0.328 0.309,-0.337 0.281,-0.337C0.253,-0.337 0.23,-0.328 0.213,-0.31C0.196,-0.292 0.187,-0.269 0.187,-0.241C0.187,-0.215 0.196,-0.192 0.214,-0.173C0.233,-0.154 0.255,-0.145 0.281,-0.145C0.308,-0.145 0.331,-0.154 0.349,-0.172C0.366,-0.19 0.375,-0.213 0.375,-0.241Z" style="fill-rule:nonzero;"/>
            </g>
            <g transform="matrix(170,0,0,170,1563.95,587)">
                <path d="M0.528,-0.127C0.528,-0.034 0.508,0.032 0.469,0.073C0.429,0.114 0.362,0.135 0.268,0.135C0.241,0.135 0.203,0.13 0.156,0.122C0.096,0.111 0.066,0.097 0.066,0.083C0.066,0.076 0.073,0.044 0.087,-0.013C0.089,-0.022 0.093,-0.027 0.098,-0.027C0.099,-0.027 0.101,-0.026 0.103,-0.025C0.153,-0 0.2,0.012 0.242,0.012C0.266,0.012 0.289,0.006 0.312,-0.005C0.34,-0.019 0.354,-0.037 0.354,-0.058L0.354,-0.091C0.321,-0.06 0.278,-0.044 0.226,-0.044C0.165,-0.044 0.115,-0.066 0.075,-0.11C0.037,-0.152 0.018,-0.204 0.018,-0.266C0.018,-0.328 0.036,-0.38 0.073,-0.421C0.111,-0.464 0.161,-0.485 0.222,-0.485C0.271,-0.485 0.309,-0.467 0.335,-0.432C0.34,-0.425 0.344,-0.421 0.346,-0.421C0.349,-0.421 0.35,-0.427 0.35,-0.439C0.35,-0.465 0.353,-0.478 0.359,-0.478C0.364,-0.478 0.392,-0.475 0.443,-0.47C0.494,-0.465 0.521,-0.462 0.523,-0.461C0.528,-0.459 0.531,-0.455 0.531,-0.448C0.531,-0.426 0.53,-0.392 0.529,-0.348C0.528,-0.303 0.527,-0.27 0.527,-0.247C0.527,-0.234 0.527,-0.214 0.527,-0.187C0.528,-0.16 0.528,-0.14 0.528,-0.127ZM0.359,-0.262C0.359,-0.286 0.351,-0.306 0.335,-0.324C0.319,-0.341 0.3,-0.35 0.276,-0.35C0.252,-0.35 0.232,-0.341 0.216,-0.323C0.201,-0.306 0.193,-0.285 0.193,-0.261C0.193,-0.237 0.201,-0.217 0.217,-0.2C0.233,-0.182 0.253,-0.174 0.276,-0.174C0.3,-0.174 0.319,-0.183 0.335,-0.2C0.351,-0.218 0.359,-0.238 0.359,-0.262Z" style="fill-rule:nonzero;"/>
            </g>
            <g transform="matrix(170,0,0,170,1660.99,587)">
                <path d="M0.489,-0.265C0.489,-0.232 0.478,-0.214 0.457,-0.209C0.453,-0.208 0.42,-0.205 0.356,-0.198C0.318,-0.194 0.26,-0.189 0.184,-0.183C0.189,-0.162 0.202,-0.146 0.226,-0.135C0.244,-0.126 0.266,-0.121 0.29,-0.121C0.319,-0.121 0.348,-0.129 0.377,-0.145C0.39,-0.152 0.402,-0.16 0.415,-0.168C0.421,-0.165 0.433,-0.148 0.449,-0.118C0.465,-0.088 0.473,-0.069 0.473,-0.061C0.473,-0.059 0.471,-0.055 0.466,-0.05C0.426,-0.007 0.364,0.014 0.281,0.014C0.203,0.014 0.141,-0.008 0.093,-0.054C0.044,-0.1 0.02,-0.161 0.02,-0.238C0.02,-0.313 0.042,-0.374 0.085,-0.422C0.13,-0.471 0.19,-0.496 0.264,-0.496C0.327,-0.496 0.38,-0.473 0.423,-0.428C0.467,-0.382 0.489,-0.328 0.489,-0.265ZM0.318,-0.295C0.318,-0.315 0.311,-0.333 0.296,-0.348C0.282,-0.363 0.265,-0.371 0.245,-0.371C0.225,-0.371 0.208,-0.362 0.194,-0.345C0.182,-0.329 0.176,-0.311 0.176,-0.289C0.176,-0.28 0.18,-0.276 0.189,-0.276C0.214,-0.276 0.251,-0.28 0.302,-0.287C0.313,-0.289 0.318,-0.291 0.318,-0.295Z" style="fill-rule:nonzero;"/>
            </g>
            <g transform="matrix(170,0,0,170,1746.16,587)">
                <path d="M0.822,-0.018C0.822,-0.007 0.817,-0 0.807,0.001C0.797,0.002 0.773,0.003 0.735,0.003C0.695,0.003 0.67,0.002 0.661,-0C0.651,-0.002 0.646,-0.01 0.646,-0.024C0.646,-0.039 0.646,-0.061 0.647,-0.091C0.648,-0.121 0.649,-0.143 0.649,-0.158C0.649,-0.215 0.648,-0.256 0.647,-0.28C0.645,-0.319 0.627,-0.338 0.592,-0.338C0.576,-0.338 0.561,-0.331 0.546,-0.318C0.531,-0.306 0.523,-0.292 0.521,-0.276C0.52,-0.262 0.519,-0.222 0.519,-0.156C0.519,-0.14 0.52,-0.117 0.521,-0.086C0.521,-0.055 0.522,-0.032 0.522,-0.016C0.522,-0.005 0.517,-0 0.508,-0L0.36,-0C0.351,-0 0.346,-0.007 0.346,-0.02C0.346,-0.035 0.347,-0.058 0.348,-0.089C0.349,-0.119 0.349,-0.143 0.349,-0.158C0.349,-0.17 0.349,-0.188 0.348,-0.213C0.347,-0.237 0.347,-0.256 0.347,-0.268C0.347,-0.315 0.329,-0.338 0.294,-0.338C0.28,-0.338 0.264,-0.332 0.248,-0.321C0.229,-0.309 0.22,-0.297 0.22,-0.283C0.22,-0.254 0.22,-0.209 0.221,-0.15C0.221,-0.091 0.221,-0.047 0.221,-0.018C0.221,-0.01 0.22,-0.005 0.218,-0.003C0.216,-0.001 0.211,0 0.203,0.001C0.188,0.002 0.165,0.003 0.134,0.003C0.113,0.003 0.09,0.002 0.064,-0C0.056,-0.001 0.051,-0.002 0.05,-0.003C0.049,-0.005 0.048,-0.01 0.048,-0.018C0.048,-0.044 0.048,-0.083 0.048,-0.135C0.049,-0.187 0.049,-0.226 0.049,-0.252C0.049,-0.305 0.045,-0.365 0.037,-0.432C0.036,-0.436 0.036,-0.439 0.036,-0.441C0.036,-0.446 0.038,-0.45 0.043,-0.452C0.05,-0.455 0.064,-0.458 0.083,-0.459C0.108,-0.462 0.122,-0.463 0.127,-0.464C0.13,-0.465 0.143,-0.468 0.166,-0.474C0.181,-0.479 0.194,-0.481 0.204,-0.481C0.21,-0.481 0.214,-0.47 0.214,-0.447C0.214,-0.424 0.215,-0.413 0.218,-0.413C0.221,-0.414 0.225,-0.417 0.229,-0.42C0.258,-0.443 0.281,-0.458 0.298,-0.467C0.323,-0.479 0.351,-0.485 0.38,-0.485C0.41,-0.485 0.437,-0.478 0.46,-0.465C0.486,-0.45 0.503,-0.429 0.511,-0.402C0.528,-0.425 0.552,-0.445 0.583,-0.461C0.613,-0.477 0.642,-0.485 0.671,-0.485C0.714,-0.485 0.749,-0.475 0.776,-0.455C0.806,-0.433 0.822,-0.401 0.822,-0.359C0.822,-0.342 0.821,-0.316 0.82,-0.281C0.819,-0.246 0.819,-0.22 0.819,-0.203C0.819,-0.183 0.819,-0.152 0.82,-0.11C0.821,-0.069 0.822,-0.039 0.822,-0.018Z" style="fill-rule:nonzero;"/>
            </g>
            <g transform="matrix(170,0,0,170,1894.57,587)">
                <path d="M0.489,-0.265C0.489,-0.232 0.478,-0.214 0.457,-0.209C0.453,-0.208 0.42,-0.205 0.356,-0.198C0.318,-0.194 0.26,-0.189 0.184,-0.183C0.189,-0.162 0.202,-0.146 0.226,-0.135C0.244,-0.126 0.266,-0.121 0.29,-0.121C0.319,-0.121 0.348,-0.129 0.377,-0.145C0.39,-0.152 0.402,-0.16 0.415,-0.168C0.421,-0.165 0.433,-0.148 0.449,-0.118C0.465,-0.088 0.473,-0.069 0.473,-0.061C0.473,-0.059 0.471,-0.055 0.466,-0.05C0.426,-0.007 0.364,0.014 0.281,0.014C0.203,0.014 0.141,-0.008 0.093,-0.054C0.044,-0.1 0.02,-0.161 0.02,-0.238C0.02,-0.313 0.042,-0.374 0.085,-0.422C0.13,-0.471 0.19,-0.496 0.264,-0.496C0.327,-0.496 0.38,-0.473 0.423,-0.428C0.467,-0.382 0.489,-0.328 0.489,-0.265ZM0.318,-0.295C0.318,-0.315 0.311,-0.333 0.296,-0.348C0.282,-0.363 0.265,-0.371 0.245,-0.371C0.225,-0.371 0.208,-0.362 0.194,-0.345C0.182,-0.329 0.176,-0.311 0.176,-0.289C0.176,-0.28 0.18,-0.276 0.189,-0.276C0.214,-0.276 0.251,-0.28 0.302,-0.287C0.313,-0.289 0.318,-0.291 0.318,-0.295Z" style="fill-rule:nonzero;"/>
            </g>
            <g transform="matrix(170,0,0,170,1979.74,587)">
                <path d="M0.527,-0.014C0.527,-0.005 0.522,-0 0.513,0.001C0.504,0.002 0.48,0.003 0.442,0.003C0.401,0.003 0.375,0.002 0.366,-0C0.356,-0.002 0.351,-0.009 0.351,-0.02C0.351,-0.035 0.352,-0.058 0.353,-0.089C0.354,-0.12 0.354,-0.144 0.354,-0.159C0.354,-0.171 0.354,-0.189 0.353,-0.213C0.352,-0.237 0.352,-0.255 0.352,-0.267C0.352,-0.312 0.333,-0.334 0.294,-0.334C0.281,-0.334 0.266,-0.328 0.25,-0.317C0.231,-0.305 0.222,-0.293 0.222,-0.281L0.222,-0.017C0.222,-0.006 0.217,-0 0.207,0.001C0.196,0.002 0.172,0.003 0.137,0.003C0.099,0.003 0.074,0.002 0.063,-0C0.053,-0.002 0.048,-0.007 0.048,-0.016C0.048,-0.042 0.048,-0.08 0.048,-0.131C0.049,-0.182 0.049,-0.22 0.049,-0.246C0.049,-0.327 0.042,-0.391 0.03,-0.437C0.029,-0.44 0.029,-0.442 0.029,-0.444C0.029,-0.45 0.031,-0.453 0.036,-0.455C0.057,-0.457 0.084,-0.461 0.118,-0.466C0.17,-0.476 0.199,-0.481 0.206,-0.481C0.209,-0.481 0.212,-0.47 0.214,-0.448C0.216,-0.426 0.219,-0.415 0.222,-0.415C0.219,-0.415 0.236,-0.426 0.274,-0.449C0.313,-0.472 0.347,-0.483 0.376,-0.483C0.417,-0.483 0.452,-0.473 0.479,-0.454C0.51,-0.431 0.526,-0.4 0.526,-0.36L0.526,-0.204C0.526,-0.183 0.526,-0.151 0.526,-0.109C0.527,-0.067 0.527,-0.035 0.527,-0.014Z" style="fill-rule:nonzero;"/>
            </g>
            <g transform="matrix(170,0,0,170,2076.11,587)">
                <path d="M0.368,-0.143C0.368,-0.133 0.367,-0.118 0.364,-0.099C0.362,-0.079 0.361,-0.064 0.361,-0.055C0.361,-0.046 0.36,-0.04 0.358,-0.037C0.356,-0.035 0.351,-0.031 0.342,-0.026C0.3,-0.003 0.253,0.009 0.202,0.009C0.108,0.009 0.061,-0.027 0.061,-0.099C0.061,-0.121 0.062,-0.153 0.063,-0.196C0.065,-0.239 0.066,-0.271 0.066,-0.293C0.066,-0.307 0.058,-0.314 0.041,-0.314L0.035,-0.314C0.032,-0.314 0.03,-0.314 0.028,-0.314C0.016,-0.314 0.01,-0.318 0.01,-0.327C0.01,-0.332 0.01,-0.34 0.011,-0.351C0.012,-0.362 0.012,-0.37 0.012,-0.375C0.012,-0.382 0.012,-0.392 0.011,-0.406C0.01,-0.42 0.01,-0.431 0.01,-0.438C0.01,-0.444 0.02,-0.448 0.041,-0.448C0.053,-0.449 0.059,-0.452 0.06,-0.458C0.062,-0.47 0.063,-0.49 0.062,-0.517C0.061,-0.559 0.06,-0.579 0.06,-0.577C0.06,-0.614 0.064,-0.633 0.071,-0.633C0.08,-0.633 0.092,-0.631 0.108,-0.627C0.127,-0.623 0.14,-0.621 0.147,-0.62C0.164,-0.618 0.189,-0.615 0.222,-0.611C0.23,-0.61 0.234,-0.607 0.234,-0.603C0.234,-0.59 0.233,-0.57 0.231,-0.543C0.229,-0.517 0.228,-0.497 0.228,-0.484C0.228,-0.468 0.233,-0.46 0.242,-0.46C0.254,-0.46 0.271,-0.46 0.294,-0.461C0.317,-0.462 0.334,-0.463 0.346,-0.463C0.353,-0.463 0.357,-0.46 0.357,-0.456C0.357,-0.448 0.356,-0.437 0.354,-0.422C0.353,-0.407 0.352,-0.396 0.352,-0.388C0.352,-0.38 0.353,-0.328 0.353,-0.32C0.353,-0.313 0.348,-0.31 0.339,-0.31C0.332,-0.31 0.321,-0.31 0.306,-0.31C0.291,-0.311 0.28,-0.311 0.273,-0.311L0.237,-0.311C0.232,-0.311 0.229,-0.304 0.229,-0.29L0.229,-0.255C0.23,-0.239 0.23,-0.228 0.23,-0.22C0.23,-0.193 0.233,-0.174 0.239,-0.164C0.248,-0.15 0.265,-0.143 0.291,-0.143C0.299,-0.143 0.311,-0.144 0.326,-0.148C0.341,-0.152 0.352,-0.154 0.358,-0.154C0.365,-0.154 0.368,-0.15 0.368,-0.143Z" style="fill-rule:nonzero;"/>
            </g>
            <g transform="matrix(170,0,0,170,2182.86,587)">
                <path d="M0.342,-0.315C0.342,-0.307 0.338,-0.303 0.329,-0.303C0.294,-0.303 0.266,-0.304 0.246,-0.306C0.247,-0.282 0.248,-0.248 0.249,-0.204C0.249,-0.186 0.251,-0.153 0.253,-0.107C0.256,-0.066 0.257,-0.034 0.257,-0.011C0.257,-0.004 0.252,0 0.243,0.001C0.232,0.002 0.204,0.003 0.16,0.003C0.123,0.003 0.099,0.002 0.088,-0C0.077,-0.002 0.072,-0.009 0.072,-0.02L0.072,-0.289C0.072,-0.299 0.065,-0.303 0.052,-0.303C0.05,-0.303 0.033,-0.302 0.03,-0.302C0.021,-0.302 0.016,-0.305 0.016,-0.31C0.013,-0.338 0.012,-0.38 0.012,-0.434C0.012,-0.446 0.018,-0.453 0.03,-0.456C0.041,-0.457 0.053,-0.457 0.064,-0.458C0.062,-0.484 0.062,-0.504 0.062,-0.519C0.062,-0.575 0.072,-0.616 0.094,-0.641C0.138,-0.692 0.208,-0.717 0.304,-0.717C0.311,-0.717 0.315,-0.715 0.316,-0.711C0.319,-0.696 0.322,-0.675 0.327,-0.646C0.327,-0.643 0.33,-0.634 0.333,-0.619C0.336,-0.607 0.338,-0.597 0.338,-0.591C0.338,-0.583 0.326,-0.578 0.303,-0.576C0.277,-0.573 0.26,-0.568 0.254,-0.561C0.243,-0.549 0.238,-0.526 0.238,-0.492C0.238,-0.481 0.239,-0.471 0.24,-0.462C0.249,-0.462 0.264,-0.462 0.283,-0.463C0.302,-0.464 0.316,-0.464 0.326,-0.464C0.336,-0.464 0.341,-0.46 0.341,-0.453C0.341,-0.438 0.341,-0.415 0.341,-0.384C0.342,-0.353 0.342,-0.33 0.342,-0.315Z" style="fill-rule:nonzero;"/>
            </g>
            <g transform="matrix(170,0,0,170,2242.87,587)">
                <path d="M0.511,-0.24C0.511,-0.166 0.488,-0.106 0.443,-0.06C0.398,-0.013 0.338,0.01 0.264,0.01C0.193,0.01 0.134,-0.013 0.087,-0.059C0.041,-0.104 0.018,-0.163 0.018,-0.234C0.018,-0.31 0.04,-0.371 0.084,-0.418C0.129,-0.465 0.189,-0.489 0.264,-0.489C0.338,-0.489 0.397,-0.466 0.443,-0.419C0.488,-0.374 0.511,-0.314 0.511,-0.24ZM0.351,-0.24C0.351,-0.266 0.343,-0.289 0.327,-0.308C0.311,-0.328 0.291,-0.338 0.265,-0.338C0.239,-0.338 0.218,-0.328 0.202,-0.308C0.186,-0.289 0.178,-0.266 0.178,-0.24C0.178,-0.214 0.186,-0.191 0.202,-0.172C0.218,-0.152 0.239,-0.142 0.265,-0.142C0.291,-0.142 0.312,-0.152 0.328,-0.172C0.343,-0.191 0.351,-0.214 0.351,-0.24Z" style="fill-rule:nonzero;"/>
            </g>
            <g transform="matrix(170,0,0,170,2332.77,587)">
                <path d="M0.365,-0.304C0.365,-0.292 0.358,-0.285 0.344,-0.285C0.338,-0.285 0.329,-0.285 0.317,-0.286C0.305,-0.287 0.296,-0.288 0.291,-0.288C0.264,-0.288 0.245,-0.283 0.235,-0.275C0.226,-0.266 0.221,-0.249 0.221,-0.224C0.221,-0.21 0.221,-0.188 0.221,-0.16C0.222,-0.131 0.222,-0.11 0.222,-0.096C0.222,-0.087 0.223,-0.073 0.224,-0.054C0.225,-0.035 0.226,-0.021 0.226,-0.012C0.226,-0.004 0.221,0 0.21,0.001C0.194,0.002 0.17,0.003 0.138,0.003C0.107,0.003 0.083,0.002 0.064,-0C0.053,-0.001 0.048,-0.007 0.048,-0.016C0.048,-0.042 0.048,-0.081 0.048,-0.133C0.049,-0.185 0.049,-0.224 0.049,-0.25C0.049,-0.326 0.042,-0.389 0.028,-0.439C0.027,-0.442 0.027,-0.444 0.027,-0.446C0.027,-0.451 0.029,-0.454 0.034,-0.456C0.052,-0.458 0.078,-0.462 0.113,-0.467C0.164,-0.477 0.191,-0.482 0.192,-0.482C0.198,-0.482 0.202,-0.472 0.204,-0.451C0.205,-0.431 0.208,-0.42 0.212,-0.42C0.208,-0.42 0.221,-0.429 0.252,-0.446C0.284,-0.463 0.314,-0.472 0.343,-0.472C0.361,-0.472 0.37,-0.468 0.37,-0.46C0.37,-0.451 0.369,-0.437 0.367,-0.42C0.365,-0.401 0.364,-0.388 0.364,-0.38C0.364,-0.37 0.364,-0.358 0.364,-0.342C0.365,-0.323 0.365,-0.31 0.365,-0.304Z" style="fill-rule:nonzero;"/>
            </g>
            <g transform="matrix(170,0,0,170,2440.02,587)">
                <path d="M0.627,-0.005C0.627,-0.003 0.624,-0.001 0.617,-0C0.605,0.002 0.574,0.003 0.524,0.003C0.481,0.003 0.452,0.002 0.437,-0C0.43,-0.001 0.426,-0.002 0.425,-0.002C0.423,-0.003 0.421,-0.007 0.418,-0.012C0.413,-0.025 0.406,-0.044 0.396,-0.069C0.384,-0.101 0.364,-0.149 0.337,-0.213C0.331,-0.226 0.318,-0.233 0.296,-0.234C0.306,-0.233 0.289,-0.233 0.246,-0.233C0.241,-0.233 0.239,-0.225 0.239,-0.208C0.239,-0.186 0.241,-0.153 0.245,-0.109C0.249,-0.065 0.251,-0.032 0.251,-0.01C0.251,-0.004 0.25,-0.001 0.247,-0C0.242,0 0.237,0.001 0.233,0.001C0.214,0.002 0.184,0.003 0.143,0.003C0.097,0.003 0.069,0.002 0.059,-0C0.05,-0.002 0.045,-0.007 0.045,-0.015C0.045,-0.051 0.047,-0.105 0.05,-0.177C0.053,-0.25 0.055,-0.304 0.055,-0.34C0.055,-0.478 0.052,-0.585 0.046,-0.662L0.045,-0.669C0.045,-0.674 0.05,-0.678 0.061,-0.68C0.071,-0.682 0.121,-0.684 0.21,-0.686C0.27,-0.687 0.318,-0.688 0.354,-0.688C0.428,-0.688 0.489,-0.671 0.536,-0.638C0.589,-0.6 0.615,-0.545 0.615,-0.474C0.615,-0.427 0.608,-0.389 0.595,-0.36C0.581,-0.332 0.556,-0.305 0.519,-0.278C0.512,-0.273 0.508,-0.268 0.508,-0.263C0.508,-0.264 0.528,-0.223 0.567,-0.141C0.607,-0.059 0.627,-0.013 0.627,-0.005ZM0.422,-0.443C0.422,-0.483 0.409,-0.51 0.383,-0.525C0.363,-0.537 0.331,-0.543 0.288,-0.543C0.257,-0.543 0.241,-0.538 0.239,-0.529C0.237,-0.518 0.236,-0.486 0.236,-0.433C0.236,-0.426 0.237,-0.374 0.237,-0.367C0.237,-0.366 0.242,-0.364 0.252,-0.362C0.272,-0.359 0.293,-0.358 0.315,-0.358C0.386,-0.358 0.422,-0.386 0.422,-0.443Z" style="fill-rule:nonzero;"/>
            </g>
            <g transform="matrix(170,0,0,170,2548.34,587)">
                <path d="M0.489,-0.265C0.489,-0.232 0.478,-0.214 0.457,-0.209C0.453,-0.208 0.42,-0.205 0.356,-0.198C0.318,-0.194 0.26,-0.189 0.184,-0.183C0.189,-0.162 0.202,-0.146 0.226,-0.135C0.244,-0.126 0.266,-0.121 0.29,-0.121C0.319,-0.121 0.348,-0.129 0.377,-0.145C0.39,-0.152 0.402,-0.16 0.415,-0.168C0.421,-0.165 0.433,-0.148 0.449,-0.118C0.465,-0.088 0.473,-0.069 0.473,-0.061C0.473,-0.059 0.471,-0.055 0.466,-0.05C0.426,-0.007 0.364,0.014 0.281,0.014C0.203,0.014 0.141,-0.008 0.093,-0.054C0.044,-0.1 0.02,-0.161 0.02,-0.238C0.02,-0.313 0.042,-0.374 0.085,-0.422C0.13,-0.471 0.19,-0.496 0.264,-0.496C0.327,-0.496 0.38,-0.473 0.423,-0.428C0.467,-0.382 0.489,-0.328 0.489,-0.265ZM0.318,-0.295C0.318,-0.315 0.311,-0.333 0.296,-0.348C0.282,-0.363 0.265,-0.371 0.245,-0.371C0.225,-0.371 0.208,-0.362 0.194,-0.345C0.182,-0.329 0.176,-0.311 0.176,-0.289C0.176,-0.28 0.18,-0.276 0.189,-0.276C0.214,-0.276 0.251,-0.28 0.302,-0.287C0.313,-0.289 0.318,-0.291 0.318,-0.295Z" style="fill-rule:nonzero;"/>
            </g>
            <g transform="matrix(170,0,0,170,2633.51,587)">
                <path d="M0.532,-0.244C0.532,-0.219 0.534,-0.182 0.537,-0.132C0.54,-0.083 0.541,-0.046 0.541,-0.021C0.541,-0.008 0.535,-0.001 0.524,-0C0.484,0.003 0.437,0.004 0.385,0.004C0.379,0.004 0.375,-0.005 0.373,-0.023C0.371,-0.042 0.368,-0.052 0.365,-0.052C0.363,-0.051 0.359,-0.048 0.355,-0.044C0.319,-0.007 0.279,0.011 0.238,0.011C0.174,0.011 0.122,-0.014 0.08,-0.064C0.041,-0.111 0.021,-0.167 0.021,-0.232C0.021,-0.307 0.041,-0.368 0.082,-0.414C0.124,-0.461 0.182,-0.485 0.256,-0.485C0.307,-0.485 0.347,-0.467 0.377,-0.431C0.378,-0.43 0.379,-0.429 0.38,-0.429C0.383,-0.429 0.387,-0.437 0.39,-0.452C0.394,-0.468 0.399,-0.476 0.404,-0.476C0.416,-0.476 0.439,-0.473 0.473,-0.466C0.505,-0.459 0.528,-0.454 0.542,-0.449C0.547,-0.447 0.549,-0.445 0.549,-0.441C0.549,-0.44 0.549,-0.437 0.548,-0.431C0.537,-0.372 0.532,-0.31 0.532,-0.244ZM0.375,-0.241C0.375,-0.269 0.366,-0.292 0.349,-0.31C0.331,-0.328 0.309,-0.337 0.281,-0.337C0.253,-0.337 0.23,-0.328 0.213,-0.31C0.196,-0.292 0.187,-0.269 0.187,-0.241C0.187,-0.215 0.196,-0.192 0.214,-0.173C0.233,-0.154 0.255,-0.145 0.281,-0.145C0.308,-0.145 0.331,-0.154 0.349,-0.172C0.366,-0.19 0.375,-0.213 0.375,-0.241Z" style="fill-rule:nonzero;"/>
            </g>
            <g transform="matrix(170,0,0,170,2733.45,587)">
                <path d="M0.365,-0.321C0.364,-0.321 0.354,-0.324 0.335,-0.329C0.316,-0.334 0.3,-0.337 0.288,-0.337C0.259,-0.337 0.236,-0.328 0.219,-0.311C0.201,-0.293 0.193,-0.27 0.193,-0.241C0.193,-0.211 0.202,-0.188 0.221,-0.17C0.24,-0.153 0.265,-0.145 0.295,-0.145C0.309,-0.145 0.325,-0.149 0.343,-0.156C0.361,-0.163 0.37,-0.167 0.369,-0.167C0.374,-0.167 0.381,-0.146 0.39,-0.105C0.398,-0.067 0.401,-0.042 0.401,-0.03C0.401,-0.017 0.381,-0.007 0.341,0.002C0.31,0.009 0.284,0.012 0.265,0.012C0.194,0.012 0.134,-0.012 0.088,-0.06C0.041,-0.108 0.018,-0.168 0.018,-0.24C0.018,-0.312 0.041,-0.371 0.088,-0.42C0.135,-0.469 0.194,-0.493 0.265,-0.493C0.314,-0.493 0.356,-0.483 0.393,-0.462C0.402,-0.457 0.406,-0.453 0.406,-0.449C0.406,-0.444 0.401,-0.425 0.391,-0.391C0.382,-0.358 0.376,-0.338 0.373,-0.332C0.37,-0.325 0.368,-0.321 0.365,-0.321Z" style="fill-rule:nonzero;"/>
            </g>
            <g transform="matrix(170,0,0,170,2804.17,587)">
                <path d="M0.368,-0.143C0.368,-0.133 0.367,-0.118 0.364,-0.099C0.362,-0.079 0.361,-0.064 0.361,-0.055C0.361,-0.046 0.36,-0.04 0.358,-0.037C0.356,-0.035 0.351,-0.031 0.342,-0.026C0.3,-0.003 0.253,0.009 0.202,0.009C0.108,0.009 0.061,-0.027 0.061,-0.099C0.061,-0.121 0.062,-0.153 0.063,-0.196C0.065,-0.239 0.066,-0.271 0.066,-0.293C0.066,-0.307 0.058,-0.314 0.041,-0.314L0.035,-0.314C0.032,-0.314 0.03,-0.314 0.028,-0.314C0.016,-0.314 0.01,-0.318 0.01,-0.327C0.01,-0.332 0.01,-0.34 0.011,-0.351C0.012,-0.362 0.012,-0.37 0.012,-0.375C0.012,-0.382 0.012,-0.392 0.011,-0.406C0.01,-0.42 0.01,-0.431 0.01,-0.438C0.01,-0.444 0.02,-0.448 0.041,-0.448C0.053,-0.449 0.059,-0.452 0.06,-0.458C0.062,-0.47 0.063,-0.49 0.062,-0.517C0.061,-0.559 0.06,-0.579 0.06,-0.577C0.06,-0.614 0.064,-0.633 0.071,-0.633C0.08,-0.633 0.092,-0.631 0.108,-0.627C0.127,-0.623 0.14,-0.621 0.147,-0.62C0.164,-0.618 0.189,-0.615 0.222,-0.611C0.23,-0.61 0.234,-0.607 0.234,-0.603C0.234,-0.59 0.233,-0.57 0.231,-0.543C0.229,-0.517 0.228,-0.497 0.228,-0.484C0.228,-0.468 0.233,-0.46 0.242,-0.46C0.254,-0.46 0.271,-0.46 0.294,-0.461C0.317,-0.462 0.334,-0.463 0.346,-0.463C0.353,-0.463 0.357,-0.46 0.357,-0.456C0.357,-0.448 0.356,-0.437 0.354,-0.422C0.353,-0.407 0.352,-0.396 0.352,-0.388C0.352,-0.38 0.353,-0.328 0.353,-0.32C0.353,-0.313 0.348,-0.31 0.339,-0.31C0.332,-0.31 0.321,-0.31 0.306,-0.31C0.291,-0.311 0.28,-0.311 0.273,-0.311L0.237,-0.311C0.232,-0.311 0.229,-0.304 0.229,-0.29L0.229,-0.255C0.23,-0.239 0.23,-0.228 0.23,-0.22C0.23,-0.193 0.233,-0.174 0.239,-0.164C0.248,-0.15 0.265,-0.143 0.291,-0.143C0.299,-0.143 0.311,-0.144 0.326,-0.148C0.341,-0.152 0.352,-0.154 0.358,-0.154C0.365,-0.154 0.368,-0.15 0.368,-0.143Z" style="fill-rule:nonzero;"/>
            </g>
        </g>
    </g>
</svg>
